<?xml version="1.0" encoding="utf-8"?><svg xmlns="http://www.w3.org/2000/svg" version="1.1" baseProfile="tiny" width="1200" height="800" viewBox="0 0 1200 800"><g><g stroke="#000000" stroke-width=".98" fill="#FFFFFF"><path d="m323.93 410.29l4 4.17 1.98 3.33 1.6.64.1.04.02-.01 0-.03-.02-.03.01-.01.02 0 0-.02-.01-.03-.01-.04.16-.39.4.05.37 0 .56.05.54-.04 1.48-.46 1.03 1 .9.59 1.29 1.81-.75.65-.46 1.4.54 3-.09.48.12.01-.02.11-.02.02.04.4.23 2.59.42 4.36.37-.28.3.2.12.42-.4.35.3.37.92.6.25-.04 1.25.64.51-.4.96 1.12-2.02 1.61-.82-1.02-1.34 1.09.06.11-.57.75.1.39-.1.13-.01.01 0 .02-.01.02-.01.02-.01 0-.01.02 0 .02 0 .02 0 .05 0 .02-.02.01-.01.02-.01.01 0 .01 0 .02.01.01 0 .02 0 .01.02.02.02.02.01.04 0 .02 0 .01.04.06.03.03.01.02.01.02.01.01.01.02 0 0 0 .02.01 0 .04.07.07.11.13.21.02.55.41.62 1.31 4.5.17.16-.15.08.51.55.58 4.22.39 2.17 1.71 1.68.58-.16 2.59 3.17.34-.12.03-.02.03 0 .03.02.01.02.04.01.07 0-.73 4.89-.62 5.07-1.73 1.7.6.49-1.93 1.32 1.08-.03.27 1.56-1.61.87-.17 1.2-1.67.79.02.12-.11.11.89.87-2.97 4.87 2.56.91 2.55 1.78.53 1.67 7.21 9.84-.01.05 0 .07.05.03-.02.06-.01.06-.01.04.04.06.03.07.01.1 0 .02 0 .02-.01.01-.01 0-.01 0-.01 0-.01 0-.01.01-.01.02 0 .01 0 .02 0 .02.01.02.01.02.01.01.02.02.02.01.01.02.01.02.01.03.03.07.01.11.01.04.01.05.01.04.01.03.01.03.04.04.2.24.05-.02.01.05.03.13.01.02.01.02.02.02.02.01.01.01.02.02.02.01.01.01.02 0 .02 0 .01 0 .01.01.04.06.01.03.01.03.01.03.03.02.02.01.02.02.02.02.02.04.02.05.02.04.02.04.01.02.02.03.01.04 0 .03.01.03.01.03.01.03.02.03.02.03.01.03 0 .02.01.03.01.03 0 .05.01.06.01.09 0 .09 0 .06 0 .04-.01.04-.01.03-.02.01-.02.01-.03-.01-.03 0-.02.02 0 .01.01.03 0 .02.01.03.01.04.01.02.01.03.01.03 0 .04.02.03.02.05.02.05.01.03.02.04.02.04.03.05.03.03.03.04.02.02.01.03.01.03.01.06.01.03.01.02 0 .04.02.08.03.06.02.06.01.07.02.02.01.02 0 .03 0 .01.01 0 .01 0 .01-.01.01.01 0 0-.01.02 0 .01 0 .01 0 .01 0 .01 0 .01.01.01.01.02.02.04.02.03.02.03.02.03.01.01 0 .02 0 .02.01.02 0 .01.01.01 0 0 .01 0 .01 0 .01 0 .01 0 .01.01 0 0 .01.02 0 0 0 .02 0 .01 0 0 0 .01.01 0 .01 0 .01 0 0 0 .01 0 0 .01.01.01 0 .01 0 .01 0 .02 0 0 .03 0 .01.01 0 .01 0 0 0 .01 0 0-.01.01-.01.01-.01.01.01 0 0 .01.02.01.01 0 .01 0 .01-.01 0 0 .04 0 .01 0 0 .02-.01.01 0 0-.01.01.01 0 0 .02.01.01.01 0 .02-.01.01-.01.02-.02 0-.02.01-.01 0-.01.03 0 .01 0 .02.02.02.03.18.18.25 0 .27.27.47.13.02 0 .02.03.02.01.02 0 .01.01.02.01.04 0 .03 0 .03.02.03.04.07.08.02.01.04.01.03.02.04.04.04.04 0 .02.04.05.05.05-.02.02.02.03.03 0 .03.03 0 .03.01.03.01.03 0 .03.03 0 .02.03 0 .02 0 .01.03-.01.01.02 0 .06.02.01-.03.05.01.01.02-.02.03 0 .03-.01.02 0 .04 0 .03-.01.01 0 .01-.01.01 0 .01.01 0 .01.01 0 .01 0 0-.01 0-.01.01 0 0 0 .01.01 0 .01 0 .01.01-.01.01 0 0 0-.01-.01 0-.01 0-.01 0 0 .01-.01.01 0 0 .01 0 .01 0 .01 0 .01.01 0 0 .01 0-.01.01 0 0-.02 0-.01.01-.01 0-.01.01 0 .01 0 0 0 0-.01-.01 0 0 0-.01-.01 0 0-.01 0 0-.01 0 0 0-.02 0 0 .01-.01 0 0 .01 0 0-.01 0 0 .01-.01 0 0 .02 0 0 0 .01 0 0-.01.01 0 0-.01 0 0 0-.01.01 0 0 0 .01 0 .01-.01 0 0 0-.01.01 0 .01 0 .01-.01 0 0 0 0 .01 0 0 0 0 0 0 .01 0 .01 0 0-.01.01 0 0 .01.01 0 0 0 0 .01 0 .01 0 .01 0 .01-.01 0 0 0-.01.01-.01 0 0 .01-.01 0 0 0 0 .02 0 0 .02-.01.01 0 .01 0 .01.01-.01.01-.01.02-.01.02 0 .03 0 .02.01.01.02 0 .01.02.01.02.01.01 0 .02.02.02.02.01.02 0 .01.01.01.01.02.02.02.02.02.01 0 .01.01.02.01 0 .01.01.01.01.01 0 0 .01.01 0 .03 0 .01 0 .01.01.01.01 0 0 0 .02.01.08.07.12.2.54.86 6.54 3.22 1.74 3.43-4.97 2.88-.63.38.33.48-.85 1.17 1.11.38-.07.23.59-.13.11.6-.2.01-.27-.27-.09.1.74 1.42-.94.47-.98-.12-1.64-1.83-.25.33.47 2.63.21.11.1-.15.38.15.31.22.01.25.66.19-.25.34.33.35.02.13 0 .02.01.03-.01.02.01.01 0 .01 0 0 0 .01 0 .01 0 .01.01.02.01.02.02.01 0 .01.01 0 .01 0 0 0 .01 0 .02 0 .01 0 0 0 .08-.01 0 .15.05.03.17-.07.09.22.47.21-.06.15.08.06.22.01.63 2.06.22-.1.01.06.18-.02-.02-.12.32-.14.05.35-.48.24.36.36-.06.22 1.21.42.93 1.29.47-.35.77.84.23-.08 0 .03.01.01.01.01.01.01.01.01 0 .01.01 0 .01 0 .01 0 0 0 .01.01 0 0 0 .01 0 .02.01.01 0 0 0 0 0 0 .01-.01 0-.01 0 0 .01-.01 0 0 .01 0 0 0 0 .01.01.01.04-.03.56.74-.01.02.01.01.01.02.01.01 0 .01.01.02 0 .01 0 .01.01.01 0 .02 0 .01 0 .01.01.01 0 .01 0 .01.01 0 0 .01.01 0 .01 0 0-.01 0-.01 0-.01 0-.01 0 0 .01-.01 0 0 .01 0 .01-.01.02-.01 0 0 .01-.01-.01-.01 0-.01 0-.01 0-.01.01-.01.01-.01 0-.02.01-.01.01-.01 0 0 .01-.01.01 0 0 .01 0 0 .01.01 0 .01 0 .01 0 .01.01 0 .01 0 0 .01.01 0 .01-.01.01-.01.01 0 0-.01.01 0 .02 0 .01 0 0 0 .01.01 0 0 0 .01.01 0 .01 0 .01-.01 0 0 .01-.01.01 0 .01 0 0 0 .01.01 0 .01 0 0 .01.01 0 0 .01 0 .01 0 .34.56-7.65 5.4-1.35 3.59-.05.17-.72.09.03-.22-1.84-1.9.12-.73-.9-.41-1.5-1.03-.65-.21-1.03-1.46.3-.46-.16-.2-.58.12-.82-.78-1.12-.46-.24.33-.67.37-1.77 2.03.21 1.69-1.8 3.28-.34-.25-.61.31-.29-.15-.19-.26-.11.06-.17-.05-.4-.04-2.22 1.97-.57 2.12.68 2.08 3.4 4.25-2.76 3.28-.02 1.41-.7 1.04-.04 1.32-.27 1.6-.01.03-.04.01-.03.03-.01.04.01.02-.03.03-.01.01-.11.44-1.13.69-.89.67.25.02 1.09.56.23-.02-.1.83-.56.37-.63 1.06-.32-.04-1.2 1.08-.99-2.12-.17.29-.96.91-.26.37-.75-.16-.72.07-.72-.26-.73-.16-.7.18-.45.49 1.51.67.75.16.19-.17.35.22.03.19.2.06.32.22.13-.01.51.31.18-.02.39.24-1.42 2.53-.28-.24-.22-.29-.22-.12-.32-.33-.26-.27-.37-.28-.8-.61-.18-.21-.51.35-.27-.18-.08-.11-.05 0-.04-.03-.11-.05-.06-.05-.1-.13-.18-.09.01-.02-.41-.23-.49.27-.06.04-.07-.02-.01-.01-.02.02-.09-.06-.04-.03-.01-.01-.03-.01-.06-.04-.07-.06-.06-.02-.02-.02-.04 0-.02-.02-.02-.01-.02-.01-.03-.03-.03 0-.02-.02-.01-.01-.01 0-.02-.01-.01-.01 0-.02-.01-.01-.01-.01-.01 0-.01-.02-.01-.02-.01-.01-.01-.01-.02-.02-.01-.02-.02-.02-.02-.02-.22.23-1.01-.33.25 3.17-1.21 10.75-5.52-1.28-1.28 1.36 2 2.24-2.96 1.6 1.12 3.04 2.88 6.88 5.6 0 3.2 4.48 12.96 11.52 1.6-.96.96 1.76 2.32 2.04.88-1.52-2.4-5.36.08-3.76 1.6-.64 1.12 2.4 2.72 1.04 1.12 1.28 3.36-.16 1.76-2.4-.48-3.28 3.84-3.52 1.84 1.12 2.96-2.64 1.92 1.84 2.24-.48-.18-2.93.1-.04-.02-.01-.01 0-.02 0-.02-.02 0-.01-.01 0-.02 0-.01 0-.01 0 0-.02 0-.01.01-.03.02-.03.01-.04.02-.05-.01-.05.08-.25.03-.01.02.01.02 0 .03.01.05.01.09-.03.14-.05.01 0 .05-.01.02-.01.01-.05.01 0 .03-.02.02-.03.02-.04 0-.05.02-.03.03-.02.04-.02.17-.01.01.01.03-.01.04 0 .04.02.03 0 .05.02.04 0 .04 0 .01.03.04 0 .02-.02.01-.03.03-.01 0-.02.04 0-.01-.02.03-.02.02-.02-.03-.01-.04-.04-.06-.06-.02-.05.01-.02 0-.03-.04-.01.02-.06.03-.01.01-.04 0-.05-.04-.03-.03-.04-.02-.04 0-.04.02-.04.04-.03.05-.02.04-.04.05-.05 0-.05.03-.06-.02-.04-.05-.01-.03.02-.04.01-.14-.24-.03-.04-.06-.1.01-.06-.09-.05-.6-1.41.02-.2.19-.51-.52-.94.11-.17.04-.13.03-.06.04-.05 0-.05 0-.04.05-.02.05-.04.04-.02.09-.09.08-.26.08-.05.03-.04.07-.06.01-.08.05-.04.07.02.09.17.1.09.12-.01.09.03.27.02.06.06.1 0 .07.09.13.08.17 0 .03.05.13.06.14-.01.13-.11.17-.21.21-.35.21-.34.02-.02.01-.02 0-.01.01 0 .01-.01.01-.01.01 0 .01 0 .01-.01 0 0 0-.01-.01-.01-.01-.01-.01-.01 0-.01 0-.02.02 0 .02 0 .46-.4.47-.4 2.17 1.28 1.66 2.71.64 6.45 5 10.8 2 1.44-1.2 4.4 3.06 14.3-.04.78.6.64.8 2.46.31.44 0 .03.01.01.03.01.02-.01.02 0 .02.02.03.01.02.01.03.02.02.01 0 .01.02.01.02 0 .01.01.02.01.01 0 .01 0 .01.01-.01.01.01.01 0 .01-.01 0 0 .02.01.01 0 .01 0 .01.01.02.02.02.01.02 0 .02.01.01 0 .01.02.03.02.02.84 1.37.26-.19 1.28.55.04-.09.49.2.85.15.73.36-.06.17-.26.51 1.67 1.47 1.14 1.87 2.64 2.62-1.28 2.56-1.28 2.5-.08 2.78.9.72.08.56 1.92 2.46 1.92 2.34-1.84 1.14.44.66.88 1.48.18.88-.06.88-.58 2.76-.42 1.38-.84 1.5-.84 1.38-.72.72-1.07.59-2.51 2.44-.67 1.71-.5 3.42-.09.56-.63.75-2.02 1.01 8.11 18.3-.01.04.13.66 0 .02-2.07 2.06-.05.05-.1.13-.03.06.04.11-.11-.04-.05 0-.22.07-.01.02-.03.09-.03.07-.08.09-.06.01-.04.03-.09.05-.02.06-.02.06-.09.06-.05.02-.75-.03-1.23.44-3.59.04.4 3.74-3.42 4.49-6.4 8.42-.03.11-.08.16-.13.05-.14.07-.13.24-.05.16-.08.08-.11.16.03.19-.01.23-.42.76-.28.52-.23.43.58.77.29.59.16.44.09.21.19.25.38.21.18.58.19.31.19.49.78 1.28.53 1.1.08-.04.1-.09.11.03.93.67.96.9.08.25.11.11.11.04.09.07.19-.03.11.07.09.17.38.45.71-.01.56.07.44.14.36.02 1.69-.11.7.14.34.14.49.46.09.35.02.38.03.33.07.12.13.09.16.01.41.03.36-.28.17.03.14.11.13.14.09.01.02-.15.06-.14.11-.03.1.06.01.14-.04.35 0 .33.75 1.09.09.24-.02.12-.08.05-.27.02-.06.1-.02.15-.23.31-.1.05-.02.04.02.09.39.33.02.07-.03.13 0 .29-.07.14-.02.1.02.06.23.44.01.27.36.22.19.31-.49.46.12.99.32.1.04.1.1.04.09.07.2.09.34.29.68-.07.97.01.44.04-.03-.51.33-.04.35.04.35.11.34.22.31.27.17.2.53-.41.68.34.32.18.67.02.52-.35.63.01.39.28.37.27.54 0 .18.02.2.01.04.03.56.09.26-.08.01 0 .2 0 .35.05.18.12.23.09.43-.01.18-.07.98-.02.09.09.31.32.43.45.12.12.06.07.04 0 .06-.05.36 0 .15-.09.27-.34.35-.07.07-.01.12.03.27.19.09.04.12-.11.36-.63.12-.16.09-.01.35.2.32.2.69.46.75.11.66.27.92.28.91.27.66.04.44.22.49.23.63.15.89.34.56.28 1.12.12 1.73.19.45.12 17.91 4.72 2.1.59 15.57 3.33 18.56 4.32 23.84 9.6 24.32 9.92 8.16 3.84 7.91 3.39 19.41 6.15 14.54 4.9 14.39 4.73.06-.75.41-3.6 2.73-.54 3.3-.65 2.37.35.09-.02.08-.05.07-.09.09-.1.04-.07.02-.06 4.88-2.16-.02-.33-.18-1.47.11-.68.53-2.01.46-1.09.5-.02.48-.01 2.52-.56 1.27-.27.24.11-.84-.97-1.96.06-1.53-.89-.31-.87 1.24-.52.21-.04.19-.16.09-.18.02-.29-.69-.36.4-1.55.08-.94.32.08.1.24-.06.28.47.75.23-.14.08.12.1.02.13-.08.29-.01.11-.16.02-.18.15-.11.06-.21-.1-.54 1.23-1.71-.5-.7 2.5-1.64.47.08 1.67-1.44 1.15.18.75-.32 1.3-1.11 2.36-.49 1.05-1.19.35-.11.95-.34-.01-2.86-2.6-3.81 1.59-2.42 2.19-.05.85-.02.25.13.14 0 .6-.31.17-.18.11-.04 1.13.35.03 1.11.15 1.32 2.48 1.24 1.16 1.82 4.84.25 1.66 2.01 1.4-.15.15.17 2.29.31-.09-1.18 1.69-.02-.05-1.31.14-.39.31-1.23.6-.79.42-1.45.07-.16.8-.49.18-.45.37-.48-.14-.38.37-.73-.12-.43.89-3.04.4-.73 1.13-.98.19-.91.65-1.22.04-1.9-.46-.67-1.37-.16-.22-.42-.23-.27-6.15-2.37-2.18-1.18.01.73-.58-.24-.17 1.64-2.32-.05-.12.17-1.1 1.87-.21.08-1.12-.55-.52.22-.56-.12-.3-.2-.34-.2-.64-.36-.03-.98.08-1.73.06-.49-.26-.58-.22-.22.1-.42.24-.06.24-.38 0-.26.2-.22.04-.3 2.12.32.8-1.76-.88-1.04.24-1.28-.32-.56 1.63-3.52-.08-1.84 11.83-.05.52-.01 3.91-.02 1.68 0 1.67-.01 1.54-.02.6 0 .57-.01 1.4-.02.32 0 .51-.02.32-.01.49-.01 1.17-.02.94-.01 1.21-.01 1.6-.07-.09-1.01.96-.01.51-.01.09 0 1.39 0 .38.81.56-.13.19.4 1.47.77 1.43.73 1.72.3 1.34 3.07.87.1.4.81.28.62.13.28.14.32.86 1.96.15.17-.02.53 0 .13.02.09.02.07.02.1.01.12 0 .25-.01.11.93.56 1.13-.05.27-.97.02-.03.01-.01.01-.02.01-.03.01-.02 0-.04 0-.02-.01-.03 0 0 0 0 .01-.02 0-.01.01-.02.01-.01.01-.01 0-.01 0-.02 0-.01 0-.02 0-.01.01-.01.01-.01 0-.01 0-.01 0-.02 0-.01 0-.01 0-.02-.01-.01.01-.01 0-.01 0 0 0 0-.01 0 .01-.01 0-.01.01-.02.01-.01 0-.01 0 0 0-.02 0-.01 0 0 0-.01 0-.01 0 0 0 0 0 0 0-.01 0 0 0 0 0-.01 0 0-.01-.01.01 0 0-.01 0 0 .01-.01 0 0 0-.01.01 0 .01-.01.01 0 .01-.01.01 0 0 0 0 .01 0 0 .01 0 0 0 .01-.01 0-.01 0-.01-.01-.01 0 0 0-.01 0 0 0-.01.01 0 0-.01 0 0 .01-.01.01 0 .01 0 0 0 .01-.01 0 0 .01.01.01 0 .01 0 .01 0 .02-.02.01-.01.02-.01.04-.04.03-.02.03-.01.02-.01.01 0 .01-.01.02-.01.01-.01.01 0 .01.01.63-.28.24-2.8 1.06-1.83-.48-.96-1.07-.07.33-.72.46-.59-.23-.46-.01-.01-.01 0 0-.01 0 0-.01 0 0-.01 0-.01 0 0 0 0-.01 0 0 .01-.01-.01 0 0 0 0-.01 0 0 0 0 0-.01-.01 0 0 .01 0 0 0 .01-.01 0-.01.01 0 0-.01 0 0 0-.01-.01-.01 0 0 0-.01 0 0 .01-.01.01-.01 0 0 0-.01 0-.01.01 0 0-.01 0 0 0-.01 0 0 0-.01-.01 0 0 0-.01 0 0 0 0-.01 0 0 0 0 .01 0 0 0 0-.01 0 0 .01 0 0-.01 0-.01.01 0 0-.01 0 0 0-.01 0-.01 0 0 0-.01 0-.01-.01 0 0 0 0-.01 0 0 .01 0 0-.01 0-.01-.01-.02-.01-.01-.02-.03-.01-.01 0-.02 0-.01.01-.04 0-.01 0-.02.01-.02 0-.01 0-.01.05-.69.01 0 .01-.01 0 0 0-.01-.01-.01 0 0 0-.01.01 0 0-.01 0 0 0-.01 0 0 0 0 .01 0 0 0 .01 0 0 0 0-.01 0 0 0-.01-.01 0 0 0-.01 0-.01 0 0 0 0 0 0 0-.01-.03 0-.01 0 0 0-.01.02-.02 0 0 .01-.01 0-.02.01-.01.03-.01.01-.01.02-.02.03-.05.01-.04.01-.03.01-.04.01-.01.01-.02.01-.01.02-.01.02-.01.02-.02.01-.02 0-.03.01 0 .01-.01.01.01.01 0 .01.01.02.01.03 0 .04.01.03 0 .02-.01.01-.01 0-.01 0-.02 0-.04.01-.04.01-.02.01-.02.04-.01.01 0 0 .01.01.01 0 .03-.01.03.01.03 0 .01.01 0 .01 0 .01-.01.01-.01.01 0 .01 0 0 .01.01 0 .02 0 .04-.01.02-.02.06-.02 0 0 .01.01 0 .01.01.01.01 0 .01-.01.02 0 0-.01.01 0 .01 0 0 .01 0 0 .01 0 .01 0 .02-.03.02-.01.02 0 0 0 .01.01.02 0 .01 0 0-.01.01 0 .02.01.01 0 .01-.02 0-.01.02-.02.02-.02.01-.02 0-.02-.01-.02-.02-.03-.02-.01-.02 0-.01-.01-.01-.01 0-.01.01-.01.04-.01.02-.02.01 0 .02 0 .03.01.02-.01.01 0 .02-.02.01-.02.01-.02.01-.03.01-.01.01-.02.02-.01 0 0 .01-.01 0 0 .01-.01-.01-.01-.01-.02 0 0 0-.01.01 0 .04 0 .04-.01.02 0 .03-.01 0-.01.01-.01-.01-.02 0-.01.01-.01 0-.01.07-.02.02 0 .05-.01.04 0 .02-.01.03-.02 0-.01.01-.01.24 0 .44-.23 1.14-1.9.45-.14.27-1.72 2.2.04 4.25.08 4.23-2.56 1.16-.17-.23-.57-.51-.37.02-.93 1.89.04.05.41.62 1.2.14-.04.02.17.02.04.03.05.06.02.11-.02.05.01.05.02.02.02.02.05.02.18.01.19.04.1.08.15.08.2.01.03 4.66.28.02-.09 1.77.66 2.17 1.93.64.03 1.3.07 3.35.19 1.12.05 1.13.06.4.01.02.06.01.04 0 .01-.01.01.01.01 0 0 .02 0 .01.01.01.01.01 0 .01 0 .02 0 .01.01-.01.02-.02.01 0 0-.02.01-.01.01-.02.01 0 0-.01.01 0 .01-.01.02-.01.01-.02 0 0 .01.01.01.02.03.02.03.01.02.02.02.01.01.01 0 .02.02 0 .02.01 0 .01.02 0 .03-.05.07 0 .01 0 .01.01.02.02.05.03.03.01.04.03.03.03.03.03.03.03.04.01.04.01.03.02.05.01.04.01.03.03.04.02.03.03.04.03.02.04.02.03.01.02 0 .02.01.02.02.02.02.01.01.01 0 .01-.01.01 0 0-.01.01.01.01.02.01.02.02.02.01.02.01.02.01.04 0 .02-.01.03-.01.01-.01.01-.01.01-.01-.01-.01 0-.01-.01-.01 0-.01 0-.01.01-.02.01-.01-.01-.01 0-.01-.01-.01 0-.02.01 0 .01-.01.02-.01.04-.01.04.01.02.01.02.01.01 0 .01-.01.01 0 .02 0 .01.01.01 0 .01 0 .01-.01.01-.02 0-.04-.02-.03-.01-.02 0-.02 0-.02.01-.02.01-.03.05-.01.02-.02.05-.02.04-.03.04-.02.04-.01.05-.01.03-.01.02 0 .03.01.02.02.02.02.03 0 .01 0 .01.01.02 0 .01.03.02.08.01.03 0 .03.01.03.03.02.03.02.01.03 0 .02-.01.03 0 .02.02.01.04-.01.04-.04.04-.03.02-.04.01-.01.02-.01.03.02.03.03.01.05 0 .04-.01.04-.02.01-.03.02-.02.02 0 .04-.02.03-.05.04-.02.05-.03.01-.02.01-.03.01-.03.03-.04 0-.03-.02-.01-.02-.02-.01-.02 0-.02.02 0 .01-.02-.01-.02 0-.01 0-.02.02 0 .02 0 .02 0 .03-.03.01-.02.03 0 .04-.01.03-.02.02 0 .02-.02.02-.03-.01-.02.01-.05.03-.01.02-.02.02-.03.02-.02.02 0 .02.02.01.03.03.05.01 0 .02-.01.05-.06.01-.04-.01-.03-.01-.03-.01-.02.01-.02.01-.01.03 0 .01-.01.01-.03 0-.04 0-.03-.02-.03.02-.04-.03-.07-.02-.03-.01-.04-.01-.01-.02-.01-.04-.05-.01-.03-.01-.03-.01-.03-.01-.02 0-.02.01-.02 0-.02-.01-.01 0-.01.01-.01.01 0 .02.02.01.02.01.03.01.01.02 0 .05-.02.02.01 0 .02-.01.02.01.01.03 0 .06-.03.07-.15.03-.05.01-.07 0-.04.01-.01.01 0 .04.02.04.05.04.06.07.07.06.04.05 0 .06-.01.04.01.02.01.04 0 .02 0 .02 0 .01 0 .03.02.02.02 0 .03.02.02.03-.02.02 0 .03.03.05.04.02 0 .02 0 0-.02.02-.02.04-.01.08 0 .04.02.02.03.02.01.02 0 .02-.01.02-.02.03 0 .03-.03.02.01.03.01.03.01.03 0 .01-.01.01-.03.01-.01.02 0 .02.02.05.05.03 0 .05.02.01.02 0 .02.01.02 0 .03.02.02.03.01.04 0 .03.02.02.02.01.01 0 .01-.02.02-.01.02.01.01.02 0 .03-.02.03-.02.05-.01.03.01.01.01 0 .02 0 .02.01.02.03.02.03 0 .04-.02.02-.02.02-.02.02 0 .03.01.03 0 .03-.01.03 0 .06.03.05.03.04.04.02.02.01.01-.01.01-.01.01-.01.01.01.02.01 0 .01.01.01.02 0 .03.02.02.02 0 .02 0 .03.02.03.04.02 0 .03-.01.02-.01.01 0 .03.01.03.03.04.07 0 .02-.01.02-.1.12-.02.03.01.02.01.01.03.01.02.02.02.05.03.04.11.12.06.05.07.01.07-.02.04.04.03.02.04.04.02.01.11-.01.03.01.04.04.11.03.03.02.03.04.03.03.06.03.07.05.05.06.02.05.06.01.01.05.04-.02.04.04.03.02.05-.01.07.03.05-.04.17-.05.09-.08.1-.12.1-.15.13-.18.1-.16.06-.09.02-.05.04-.05.05-.06.01-.03.01-.08.03-.08.01-.02.04-.03.02-.04.01-.03 0-.03.01-.06.03-.04.03-.02.02-.04.01-.05.01-.04.01-.03.02-.02.05-.09.05-.15.03-.07.06-.1.06-.05.03-.03.03-.09.02-.03.04-.02.01-.02 0-.06-.02-.06.16-.09.47.2.39.26.08-.04.57.97 2.57-.28 1.61-.21 2.06-2.25-.15-.86 1.3-.97.27.39.22.28.22.18.24.11.23.04.23-.06.36-.2.57-.34.09.58-.77 1.03-.26.95 0 .32.07.57-.66 1.52.2 1.14-.64.75-.45 5.96 2.98.12.12.52-.14.19-.05.12-.2.22-.11-.01-.05.01-.02.01-.01.01-.01.02-.01.03-.02.02-.01.01-.04 0-.04 0-.05.03-.06.03-.02.01 0 .01 0 .02-.01.02.45-.09-.1 3.08.3.18 1.11-.46.16-.4.38-.19 1.3-1.56.69.42 2.09-1.15-.03-.33.69-.49.81-.94.96.17.44.03.01.08.04.06-.01.05.01.05.03.05.02-.02-.01-.04.04-.02.05-.01 0-.04.05 0 .01.02.02.02.01.03.03.03-.01.02.03 0 0-.01.03.01 0 .02.02.02.04.01.04-.01.05-.04.04-.02.05.01.03 0 .06.03.01.01.02.02.02-.01.03.01.01-.01-.01-.01 0 0 .01-.01.01.01.01 0 0-.01 0-.04 0 0-.01-.01.01-.01.01 0 .01 0 .01.01.02.01.01.01.02.04 0 .01.02 0 .01 0 .02 0 0 .01.01 0 .02-.01.02.01 0 .02.01.01.03 0 .01-.01.03-.04 0-.02.01-.03.01-.01.01-.03.01 0 0 0 .01.04.02.03.01.02.01.01.02-.04.06-.05 0-.02.02-.02-.01-.02-.01-.02 0-.01.01-.02.02-.02.01-.02-.02-.03 0-.03.02-.07.02 0 .07.02.03-.04.02-.01 0-.02-.05 0-.02-.01 0-.05.03-.03.07-.05.04-.01-.01-.06.02-.01.04-.02.01.01.03.01.04 0 .03 0 .02-.01.03 0 .01-.01.02 0 .01 0 .01-.03.06 0 .01.02.01-.02.03-.01.01-.01-.03-.05-.02 0-.01-.02.01-.02-.01-.04.01-.01.01 0 .01.02.02 0 0-.02.01-.02 0-.01 0 0 .02 0 0 .01 0 .02.01-.01 0-.02.01-.02.02 0 .02-.01.02 0 .01.02 0 .03 0 0 0 .03.01.01.02 0 .02-.01.01-.01 0-.03 0-.03.03-.02.02-.02.02 0 .01.02 0 .03 0 .02.02.03.04.02.01 0 .01 0 .01-.01.01 0 0-.01 0-.02.03 0 .02 0 .01-.01.01-.03.03-.01.01 0 .02.01 0 .01.01 0 .01-.02 0-.02.03-.01.02 0 .01.01 0 .01-.01.02-.02.02-.01.06-.01.02.01.03-.01.03.02 0 0 .01-.02 0 0 .01-.02 0 0 .01.01.02.02.01.02-.02.01-.02.04-.03.01 0 .03.04.01 0 .01-.02-.01-.01-.01-.01.01 0 .01-.01.03-.01.01.02 0 .01-.03.04 0 .01.03.01.01.01-.01.02 0 .01.01 0 .01-.01.01 0 .01-.03.01.01 0 .02 0 .01.01 0 .02-.01.01-.01.01 0 0 0 0 .02-.02.05-.02.03-.01 0-.01.01.02.03.01.02 0 .01-.02.01.01.02.01 0 .02 0 .02.05.01 0 .02-.02.02 0 .02-.02.02 0 .02 0 .03.04.02 0 .01-.01 0-.01 0-.03-.02-.03 0-.01.01-.01.06.01.03.02 0 .03 0 .06 0 .01.02.02.03 0 .01.01.06.08.05.03.02.01.01 0 .13-.11 5.78-4.1 7.36-3.92 29.15-15.59 7.5-4.01 2.32-1.11 1.02-1.3-1.25-1.7 4.72-9.08.46-2.94 6.5-2.52 1.5 1.18 8.87 1.36.58-2.85 8.51-6.33.14 1.82 1.45-.03 6.62 5.19 4.3.4 2.78.42-.06 2.69.77 2.25 1.58.12.94-.31 6.95.08 3.25-2.31 2.73.7 6.45-1.55 1.47-.35 3.08 1.02 3.39.19-1.8-.92-.83-1.3.25-.72-.71-1.26.66-1.2-.89-5.07 1.45-1.93-.53-1.54.59-1.52-.29-.42 1.15-2.69.36-.25 1.23.31.77-.49.28-1.13.65-.93.72-.19.63-1.27-.1-.75.36-.32-.06-1.23-.4-1.6-.28.01-.69-.66-.03-.62.7-1.65.3-.31-.45-1.24.33-.33.24-1.47.97-1.01.31-1.31.04-1.98.09-.16-.45-1.01.45-.95-.12-.43.36-.81.29-.17.07-1.65.88-1.58-.38-.64.75-2.27-.6-2.03.36-1.74.34-.82-.08-.93.68-.55-.1-.25-.21-.18.15-1.33-3.23-1.2-1.82.18-1.19-.22-1.46-3.09.54-1.05-.36-.76.53-1.94-1.27.19-.57-2.01.35-.75-1.25-2.85.44-1.49-.7-3.18-.04-.06-.1-.04-.11 0-.19.18-.19.16-.07.02-.06-.02-.03-.04.01-.13-.09-.14-.14-.12.38-1.09.7-.51-.03-.62-2.09-3.53 1.23-.89-2.45-2.05.19-1.13-1.04-1.71-1.69.28-2.1.06-2.83-1.25-2.01.82-.08-.09-.01-.02.01-.02.05-.01.04-.02.01.02-.01.02.01.01.03-.01 0-.03-.02-.03 0-.03.03 0 .01-.07-.06-.07-.06-.01-.03.01-.03.07-.03 0-.02-.04-.02-.03-.05 0-.05.03-.03.05 0 .04.03 0-.01.04-.03.02-.04-.04-.04-.01 0-.08-.05-.02-.04.03.03 0 .01.08-.02.03-.02.01-.04-.05-.03.01-.04.05-.04.01-.07-.02 0-.02.01-.04-.02-.07-.03-.01-.02.03.02.01-.03.03-.05-.04-.05.01-.01-.03-.04-.01 0-.01.02-.03-.02-.03-.04.04-.03-.05.01-.04-.1-.04-.07.02-.04.03-.02.02.05.03-.04.02-.05-.04-.05.04-.03.01-.01-.02-.04.03-.02-.01-.05-.02-.06.02-.01.03-.02-.02-.02.05.04.01-.08.05-.01.02-.05-.02-.03-.05.01-.02-.03-.01-.07.09.02.01.03-.02 0 .03-.04.03-.06.03-.05.11-.07-.02-.07 0-.03.04-.03.07-.03.02-.03-.01-.08.08-.04.04 0 .02.04 0-.01.04-.05.02-.01.02-.03.04-.04.02-.05 0-.06.05-.07.06-.1.11-.07.03-.07 0-.09-.02-.23.01-.04.01-.07.05-.08 0-.07 0-.13.08-.14.05-.15.11-.03.11-.07.07-.12.06-.12.07-.11.15-.12.13-.11.17-.11.13-.09.16.02.08-.09.04-.06.04-.09-.05-.27-.14-.12-.03-.1.09-.23.18-.09-.01-.19-.11-.12-.12-.01-.17-.07-.25-.14-.26-.05-.07.02-.13.01-.11 0-.09.02-.13-.02-.08.01-.05.06-.09.1-.08.04-.12.05-.05.02-.06-.01-.04-.05-.06-.02-.17.03-.05.12-.13.22-.16.11-.16.02-.28.09-.05.06-.07.06-.14.04-.11.08-.07.2-.12.12-.14.06-.14.02-.08 0-.09-.06-.15-.02-.13 0-.13.05-.11.11-.15.08-.04.1.01.09-.01.06-.05.04-.09.03-.1-.02-.13-.06-.12-.11-.11-.13-.11-.16-.08-.1.01-.15.05-.08 0-.24-.08-.18-.1-.05 0-.08.06-.06 0-.02-.02-.01-.05 0-.06.08-.14.09-.2.03-.13-.01-.1.03-.06.12-.13.09-.1.07-.11.02-.11.03-.07.04-.08.05-.05.08-.05.09-.01.02-.06.03-.2-.02-.07-.06-.07-.08-.07-.08 0-.06.02-.04-.01-.04-.05-.01-.1.02-.08.08-.08.12-.09.05-.01.08.02.04-.04.03-.05.02-.12-.01-.12.02-.08.07-.13.09-.11.09-.07.07-.08.03-.06.03-.09.03-.05-.01-.03-.02-.02-.04 0-.04.02-.03.06-.04.01-.02-.04 0-.11.03-.12.08-.13.08-.07.16-.08.15-.01.06-.08.09-.22.08-.18.05-.08.1-.05.05-.04.03-.09.1-.21.06-.05.09-.05.15-.01.11.04.07.06.03 0 .04-.02.05-.07.04-.11.05-.06.06-.05.31-.07.15-.1.11-.13.1-.07.05-.07.04-.08.1-.05.02-.07.01-.07-.01-.1.03-.08.1-.11.06-.13.04-.1.1-.11.02-.09.05-.09.07-.06.04-.08.05-.11.03-.02.06-.08.1-.15.02-.04.05-.09-.01-.09-.02-.07 0-.09.01-.05.05-.09.04-.11.05-.1.06-.12-.05-.1-.03-.03-.01-.07 0-.07.02-.03.04-.01.08 0 .02-.03.01-.05.01-.08-.02-.07-.02-.09.02-.11.01-.11.02-.19.05-.1.06-.07.24-.27.03-.07.01-.08 0-.12-.01-.06-.04-.05-.08-.06-.07-.02-.04-.04-.05-.09-.02-.07.01-.04.05-.03.05 0 .08.03.06.06.03-.01.05-.05.03-.05 0-.06-.02-.04-.08-.04-.07-.08.02-.06.05-.06.07-.04.03 0 .04.03.03.04 0 .04.02.05.04.01.05 0 .09-.02.19-.11.03-.04.04-.07.05-.03.04 0 .07.02.04-.01.04-.04.01-.04.01-.08-.02-.07-.01-.08.15-.3.05-.07.06-.07.03-.05.02-.09-.01-.1-.02-.08-.04-.09-.04-.09 0-.04.03-.05.08-.1.08-.13.04-.1.04-.1.06-.04.07-.02 0-.02-.01-.03-.03-.02-.07-.02-.12.01-.06.03-.04-.03-.03-.06.01-.05.03-.05.01-.06-.03-.05-.05-.04-.03-.06.04-.07.03-.02.11-.04.08-.05.09-.1.03-.01.07.01.02.02.04.08.06 0 .04-.02.05-.06 0-.04-.01-.01-.02-.04.01-.04.06-.06.1-.07.12-.14.04-.05.04-.03.09-.02.18-.05.03-.04.04-.16.02-.04.04-.04.01-.07.04-.11 0-.06-.01-.08.03-.08.07-.06.06-.05.04-.02.12-.01.21 0 .08-.05.07-.06 0-.07-.05-.13-.08-.14-.07-.04-.11-.1-.18-.29-.04-.08-.03-.15-.07-.22-.03-.06-.07-.11-.03-.12 0-.11.03-.08.06-.03.07-.07.02-.1.04-.11.02-.06.08-.07.02-.08-.01-.05.01-.03.03-.05.09-.06.07-.07.03-.08-.02-.03.06-.07.01-.05-.02-.06-.03-.15-.03-.08-.01-.14.03-.11.01-.09-.02-.1-.04-.06-.05-.11-.07-.07-.03-.07.01-.1.02-.03-.04-.16-.03-.08-.02-.08-.14-.27-.1-.27-.04-.11-.01-.15.02-.2.04-.21.08-.26-.02-.07.01-.07.03-.08.02-.07-.01-.07.05-.1.03-.02.01-.05.05-.11.12-.12.18-.19.13-.09.12-.08.16-.15.07-.09.01-.05-.03-.06-.03-.03-.04-.01-.07.03-.03 0-.02-.07.02-.05.05-.05.05-.03.07 0 .04-.04.02-.06.03-.15.03-.13-.02-.04.01-.09.01-.1.03-.14.07-.14.05-.09.05-.04.04.01.02-.02 0-.05-.03-.06-.04-.05.01-.1.03-.04.06-.02.04-.03.05-.1.01-.09-.06-.22-.07-.09-.09-.08-.03-.09-.13-.22-.06-.01-.02-.07 0-.06-.02-.1-.05-.11-.04-.04-.01-.03-.01-.03-.05.02-.03-.03-.02-.06.06-.12.06-.03.04-.03.03-.08-.01-.03-.01-.1 0-.1.03-.1.04-.09 0-.02.05-.05.04.01.02.03.03-.02.03-.04-.01-.06-.05-.04-.09-.06-.02-.02.01-.04.06-.04.07-.06.05-.03.08-.05.08-.09.01-.12-.14-.13-.01-.05-.05-.02-.04.02-.02-.04 0-.04.02-.04.06-.06.11-.08.03-.07.05-.12.02-.14.01-.07 0-.13.06-.19.01-.14.02-.08.03-.09.01-.05-.01-.07-.05-.08.03-.06.04-.01.09.01.07.03.02 0 .04-.04.02-.06-.01-.09.01-.09.03-.07.07-.06.04-.07.11-.13.19-.07.14-.05.1-.07.04-.05.01-.06-.02-.06.02-.11.01-.11-.04-.06-.05-.02 0-.05.01-.07.05-.06.14-.16.06 0 .03.02.04 0 .05-.03.04-.1.02-.08-.02-.09 0-.11-.03-.09-.01-.04-.14-.1-.12-.19-.04-.06-.05-.13-.06-.11-.1-.04-.04-.03-.05 0-.08.07-.04 0-.03-.05-.01-.05.04-.06-.01-.05-.05-.03-.12-.03-.07 0-.04-.01-.03-.04-.09-.15-.02-.07-.1-.09-.09-.12-.02-.08-.01-.11-.04-.05-.16-.09-.02-.05-.1-.01-.06.03-.04-.01-.05-.05-.09-.08-.05-.06-.06-.02-.05.01-.09.06-.06.02-.12-.01-.01.04-.01.03-.05.02-.13-.01-.01-.03-.03-.09-.1-.14-.03 0-.04.02-.07.03-.06 0-.04-.06-.08-.04-.09-.06-.06-.08-.1-.09-.04-.05-.03-.07-.01-.12-.03-.04-.04-.01-.02-.03.08-.11 0-.05-.05-.05-.02-.07-.01-.09.02-.06.04-.07.09-.02.01-.02-.01-.05-.02-.07 0-.06 0-.03-.06 0 .01-.04.04-.01.01-.03-.02-.09-.04-.23-.04-.06.03-.05.04-.04 0-.03-.02-.04-.07-.06-.1-.05-.09-.08-.04-.06.01-.07.02-.03-.01-.1-.03-.12.01-.12.03-.05 0-.05-.02-.08-.03-.1-.05-.09-.02-.05.02-.03.09-.02.01-.02-.01-.06-.05-.07.01-.1-.03-.11.02-.1 0-.06-.05-.09-.03-.09-.02-.11 0-.06-.02-.06 0-.06 0-.12.05-.1.07-.09.05-.08.04-.07 0-.07-.03-.13-.04-.07-.12-.06-.03-.06-.05-.06-.01-.11-.02-.02-.03 0-.05.02-.04-.03.02-.03.03-.03-.01-.03-.03.01-.01-.02.01-.06.08-.01.01-.04.08-.01.01-.04-.02-.05-.03.02-.02-.03.01-.04.04-.01.02 0 .02-.08.06-.03.05-.06.03-.07-.02-.05-.04.01 0 .06-.02.03-.09.02-.02-.01-.01-.1-.06-.02-.01.02-.02 0-.02-.03.01-.08.03-.01.04-.07.06-.03.02 0 .03-.02.01-.04 0-.06-.03-.04-.04-.09-.01-.07.02-.02.09-.02.03 0 .03-.01.01-.05 0-.06-.05-.06-.02-.1-.05-.12-.03-.17-.03-.07-.05-.07-.07-.05-.05-.05-.02-.06-.02-.08-.01 0-.05.02-.01.06 0 .08.03.08-.01.04-.05.03-.02.04-.04-.01-.14-.24-.02-.13.01-.06.04-.04 0-.06.04-.06.05-.03.12-.18.02-.02.04-.02 0-.03-.03-.06-.11-.05-.04 0-.01.02.03.02-.01.05-.02.03-.04.03-.04-.01-.09-.06-.07-.11-.03-.06.01-.13.03-.04.14-.09.04.01.01.01.03.01.05.04.05-.03 0-.05-.05-.11-.03-.02-.08-.15.02-.07 0-.05-.02-.04-.02-.08-.03-.03-.07.01-.03-.03-.04-.11-.06-.08-.03-.09-.05-.08.01-.14-.04-.04-.05-.02-.06.01-.05-.04-.01-.05-.07-.05-.04-.06-.03-.08-.07-.12-.09-.04-.01-.05.02-.06.03-.04.04-.04.02-.06 0-.06 0-.16.01-.04.06-.04.05-.02.05-.08.01-.11-.05-.03.01-.04.04-.04.03-.04-.01-.07-.02-.11-.03-.05-.03-.02-.04-.01-.04-.04-.07-.02-.05.01-.06-.05-.04-.04 0-.06-.01-.03-.02-.04-.12-.02-.06-.03-.01-.05.02-.04.07-.06.02-.04-.01-.07-.12-.14-.03-.06-.03-.11.03-.01.03-.03.07-.06.13-.07.02-.05-.03-.1.05-.07.05 0 .03.02-.03.07.05.07.04.03.09-.02.1-.05.05-.09.02-.09-.02-.02-.07-.01 0-.04.03-.02.12-.01.03-.02.03-.08-.03-.05-.05-.08-.02-.06.04-.17-.03-.08-.04-.08-.11-.04-.04-.07-.06-.06-.09-.06-.07-.08-.04-.07-.04-.07-.01-.05.03-.02.05.01.07.04.03-.01.01-.03 0-.06-.05-.07-.03-.08 0-.1-.02-.05-.01-.06.03-.06.05-.07.05-.03.02-.08-.05-.07.04-.02.05 0 .02-.06-.03-.06.03-.08-.03-.04-.02.04-.03 0 0-.06.04-.05-.01-.04-.03-.02-.05 0-.01-.04.02-.07-.03-.03-.04.01-.04-.02-.01-.05.05-.07.04-.03.04-.03-.01-.06.04-.12-.04-.02-.04.04-.04.01 0-.04.01-.05.07 0 .02-.05 0-.15-.06-.08.01-.04.05-.05.05-.07-.01-.07.01-.08.03-.04-.02-.05-.03-.02-.1 0-.03-.04-.03-.07-.06 0-.07-.1.03-.04-.02-.04.07-.02.01-.03-.07 0 0-.05-.03 0-.02.03-.07.02-.05-.01-.01-.02.02-.01-.01-.05-.06 0 0-.02-.05.01-.06.01-.06 0-.08-.06-.03-.06-.02-.07.01-.05.07-.1.06-.14-.02-.05-.04-.02-.06-.02-.05-.06-.02-.05.02-.12.04-.1.04-.03.01-.04-.02-.03-.09-.01-.05-.06 0-.06-.04-.05-.04 0-.12-.05-.07-.04 0-.04.08-.02.03-.04-.02-.06-.06-.02-.12.02-.17-.03-.07-.04-.04-.06 0-.04.05-.03.03-.04.04-.01.05-.09.03-.04 0-.16-.05-.05-.08-.03-.05.01-.04.04-.04.02-.05 0-.08-.04-.02-.08.03-.26 0-.2.01-.04 0-.11-.03-.07-.01-.07-.26-.18-.05-.16-2.08-.09-6.34-3.24-2.62.01-2.85.74-1.37-.7-4.11 3.13-6.43.52-1.72-1.34-.37-.18-.49-.48-.41-.19-1.72-1.43-9.79-2.38-15.79-11.32-1.29-1.04-2.36-5.83-13.39-22.1-.65-5.12 1.56-3.34.06-.61 2.24-3.99-.36-4.86.99-1.41 1.83-.15 2.88-4.2-.81-3.95-.55.35-3.62-.11-1.37.73-2.92.9.94-8.92-1.57-6.96-2.5-11.9-1.65-1.39-.92-.5-1.1-1.07-2.49-.63-1.2-.61-1.42-.72-.67-.27-7.99-14.48 2.48-3.82 20.72-2.06.4.37 9.17-1.07 2.2-5.57 1.3-1.93 4.37-8.5-.49-5.65-1.36-.49-.61-6.05.82-3.42.02-.11-.54-5.16.02-.93-.29-2.15.25-.35.05-2.43-.07-.39 9.05-14.5 2.4-9.44 2.64-4.88.32-5.28-2.64-5.28-5.92-4.48-3.52-6.08-4.64-6.08-4.48-3.52-16.32-13.92-7.52-7.68-10.4-6.08-4.91-15.55 9.63-28.69 1.36-1.76.96-2.08 6.16-1.92 1.12-2.88 1.2-1.52 1.6-1.45-3.44-4.16-.32-1.2-3.68-2.32-7.84-10.16-.48-3.12-2-3.96-1.76 0-1.12-1.08-17.25 0-12.94-19.06 3.42-91.36-28.31-24.58-12.84-9.8-10.6-7.78-25.62-19.61-23.33-12.29-.15-.09-3.58-1.65-1.66-.77-6.39-2.55-9.58-2.97-6.06-.98-4.31-.83-3.2-1.67-4.98-.71-2.87-.77-3.29 0-8.98.06-3.95.09-.29.44-1.45.46-.43 8.75-.03 4.16-.07 1.22-.14.16-.28.01-.16-.03-.31-.1-.2.01-.25.02-.37.07-.3-.09-.19-.08-.15.01-.27.08-.16.01-.22-.1-.39-.05-.35.04-.11.13-7.09.54-.38 1.24-.4 13.78-.25 3.87-5.72-.2-6.35-.14-11.57-.48-.5-.14-4.34-1.67-1.39-1.14-.85-7.12-.72-4.63-.65-6.3-9.95-1.04-.88-8.76-1.68-13.39-.08-.1-.22-.08-3.94-.54-.24-.07-23.65-.12-.49-1.35-3.5.08-.33.24-.05.1-98.85.46 1.63 2.79.22.37.08-.08.11.12.01.22-.05.17-.11.05.32 1.29-.02.55.35.55 1.16 2.1-.15.29-.41.26.37.78.79.23.3-.05.27.15.1.44.07-.01.04 0 .03.05.01.06-.01.04.07.04.08 0 .1-.03.12-.05.03.44-.11.29-.22.3-.01.19-.02.12.07.1.09.05.05.19 0 .09.14.09.18-.05.15.25 2.88 5.06.43 1.09 2.34 5.88.35 1.04 2.72 8.1 3.44 9.8.56 2.09 1.24 4.66 1.73 5.28.15.45.16.33-.01.02-.02.01.01.03 0 .03-.01.02.02 0 .03.02.01-.01.02-.01.02 0 .02 0 .02 0 .02 0 .03-.01.03.01.02.03.01.02.03.01.01.02 0 .02.02.02.02 0 .01.01.02.08.1.04.06.06.05.06.02.07.01.06-.01.05-.04.06-.06.07-.06.04-.07.03-.08.02-.11 0-.16-.01-.05.03-.05.04-.03.05-.01.03 0 .05.06.12.06.18.03.05.03.04.06.07.1.06.11.03.09.01.09-.03.07-.04.04-.05.08-.06.05-.04.04.06 3.39 5.6 2.34 3.71.56.88.28.46 1.01 1.59 1.18 1.86 1.91 3.24.85 1.45.9 1.51 2.46 10.15.32 1.49.04.06.55.25-.22.26-.22.21.2.75.19.69.22.86.48.3.05.28-.23.11.06.79.41 5.08 1.56 1.73.01.75 0 .39.35 1.19.96 3.28.74 2.5.31 1.29.2.84.4 2.32.54 3.09.04.26.14.68.02.33.43 3.35.18 1.44.18 1.38.1.87.08.63.17.83.05.46.14.94.13.92.09.64.11.89.2 1.45.05.42.12 1.11.31 2.63.32 2.76.04.36.25 4.4-5.73-2.61-1.34-1.32-2.38 1.28-2.06.95-.59.28-1.74.8-2.9 1.41-3.64 1.75-2.86 1.41-1.03.52 1.87 3.91 3.61 3.64 1.34 1.47 1.46 1.79-2.95 3.72-.74.93-.12.15-.37.57-.12.2-.49.79-1.04 1.66-.25.39-.28.46-.1.58-.11.73-.13.76-.46.7-.47.72 0 .4-.1 3.11-.07 1.97-.07 2.24-.05 1.43-.04.96.08.99.11 1.96.04.73.22.88.46 1.95.21.89-1.31 1.82-.75 1.06-3.79 5.26-2.15 1.85-.43 2.21 1.06 2.22.17.37.64 1.36 1.97.04 1.93.08 2.54.69 1.14-.45 3.07.84 2.52 1.11 1.5 1.2.45 1.85-4.32 6.75 1.81 2.18.05-.04.03-.05.12-.07.12-.04.1-.02.11-.17.07-.04.11-.01.1 0 .03.05.01.06-.13.05-.05.04-.05.04-.04.05-.03.06-.05.04-.14.05-.22.18.9 1.08 1.67 1.98-1.46.2-2.38 1.63-5.73.09-1.25 1.02-1.62 1.04-1.6 1.04-.08.09-1.61 1.05-.19 1.8-.15 1.4-.15 1.21-.12 1.16-.12 1.03-.58 1.65-.3.8.72 3.04.27 1.17.17.66-.1.96-.12 1.21-.16 1.3-.09.98.24 1.36 1.73 7 2.13 2.38 1.06 1.63-.71 2.52 1.01 1.33.18.24 1.85 2.4 7.53 0 .6-.33 1.07-.18 5.72-.17.67.45 2.08-.19 2.54 2.58.26 1.24-.32.08-2.57 3.16.72 3.84 2.95 5.4 1.25 2.27.58 1.06-.33 1.94-.65 1.2-3.77 1.44-3.78 3.76.02.07.45 1.33-.27 2.53-.34 3.35.39.97 1.22 3.04.88.5-.31 2.39 1.25 1.47.73 2.87-.49 1.25.42.99-.72 4.35 3.79 4.98 1.59.96 4.25 1.01 3.06 1.93 1.33.84.97 1.34 3.77 2.72-.36 2.46 1.61 1.65 5.48.9 1.59 5.45-2.52 2.31 2.88 6.62 2.19 3.03.01 4.08-1.49 7.04-2.06 4.16-.05.08-2.61 4.55-5.45 6.72-1.9 2.99 0 .02-.05.15-3.47 11.41-6.42 2.76-.99.53-1.98 1.13-6.21 3.46-.52.29-.06-.04-.03.02-.02.02-.04-.01-.02-.01-.03 0-.03.01-.02 0-.02-.02-.02-.01-.02-.01-.03.01 0-.01-.04 0-.05.02-.03.01.02.02-.03.04-.01 0-.01.02-.03.03-.02-.01-.01.01.01.01-.01.02-.02.01-.02 0-.04.04-.02.04.03.02 0 .03-.01.02-.02.07.03.03 0 .04-.03.01-.03.05-.1.02-.08.08-5.56.85-3.68 3.86-1.99 2.15-3.1-5.86-2.32-17.45-8.64 1.12-7.2 1.36-3.04.56-4.4.88-3.28.24-10.96.56-6.65.56-2.48.56-8.94-2.64-11.56-2.84-1.71-.67-.26.54-2.12.97-.06.23.89 1.45-6.7 13.6z" /></g></g></svg>