<?xml version="1.0" encoding="utf-8"?>
<!-- Generator: Adobe Illustrator 25.4.1, SVG Export Plug-In . SVG Version: 6.00 Build 0)  -->
<svg version="1.1" id="Warstwa_1" xmlns="http://www.w3.org/2000/svg" xmlns:xlink="http://www.w3.org/1999/xlink" x="0px" y="0px"
	 viewBox="0 0 614.1 800" style="enable-background:new 0 0 614.1 800;" xml:space="preserve">
<style type="text/css">
	.st0{fill:#FFFFFF;stroke:#000000;}
</style>
<g>
	<g>
		<path class="st0" d="M31,410.3l4,4.2l2,3.3l1.6,0.6l0.1,0l0,0v0l0,0l0,0h0v0l0,0l0,0l0.2-0.4l0.4,0h0.4l0.6,0l0.5,0l1.5-0.5l1,1
			l0.9,0.6l1.3,1.8l-0.8,0.6l-0.5,1.4l0.5,3l-0.1,0.5l0.1,0l0,0.1l0,0l0,0.4l0.2,2.6l0.4,4.4l0.4-0.3l0.3,0.2l0.1,0.4l-0.4,0.4
			l0.3,0.4l0.9,0.6l0.2,0l1.2,0.6l0.5-0.4l1,1.1l-2,1.6l-0.8-1l-1.3,1.1l0.1,0.1l-0.6,0.8l0.1,0.4l-0.1,0.1l0,0v0l0,0l0,0h0l0,0v0v0
			v0v0l0,0l0,0l0,0v0v0l0,0v0v0l0,0l0,0l0,0v0v0l0,0.1l0,0l0,0l0,0l0,0l0,0l0,0v0h0l0,0.1l0.1,0.1l0.1,0.2l0,0.5l0.4,0.6l1.3,4.5
			l0.2,0.2l-0.1,0.1l0.5,0.5l0.6,4.2l0.4,2.2l1.7,1.7l0.6-0.2l2.6,3.2l0.3-0.1l0,0h0l0,0l0,0l0,0h0.1l-0.7,4.9l-0.6,5.1l-1.7,1.7
			l0.6,0.5l-1.9,1.3l1.1,0l0.3,1.6l-1.6,0.9l-0.2,1.2l-1.7,0.8l0,0.1l-0.1,0.1l0.9,0.9l-3,4.9l2.6,0.9l2.5,1.8l0.5,1.7l7.2,9.8l0,0
			v0.1l0,0l0,0.1l0,0.1l0,0l0,0.1l0,0.1l0,0.1v0v0l0,0h0h0h0h0l0,0l0,0v0v0v0l0,0l0,0l0,0l0,0l0,0l0,0l0,0l0,0l0,0.1l0,0.1l0,0l0,0
			l0,0l0,0l0,0l0,0l0.2,0.2l0,0l0,0l0,0.1l0,0l0,0l0,0l0,0l0,0l0,0l0,0l0,0h0h0h0l0,0l0,0.1l0,0l0,0l0,0l0,0l0,0l0,0l0,0l0,0l0,0
			l0,0l0,0l0,0l0,0l0,0v0l0,0l0,0l0,0l0,0l0,0l0,0v0l0,0l0,0v0l0,0.1l0,0.1v0.1v0.1v0l0,0l0,0l0,0l0,0l0,0h0l0,0v0l0,0v0l0,0l0,0
			l0,0l0,0l0,0v0l0,0l0,0l0,0l0,0l0,0l0,0l0,0l0,0l0,0l0,0l0,0l0,0l0,0.1l0,0l0,0v0l0,0.1l0,0.1l0,0.1l0,0.1l0,0l0,0v0v0h0h0l0,0
			l0,0l0,0l0,0v0v0v0v0v0l0,0l0,0l0,0l0,0l0,0l0,0l0,0v0v0l0,0v0l0,0l0,0h0h0h0h0l0,0l0,0l0,0l0,0v0v0l0,0v0h0h0h0l0,0h0v0l0,0v0v0
			v0l0,0h0l0,0v0l0,0v0l0,0l0,0l0,0l0,0h0v0l0,0h0h0l0,0l0,0h0h0v0l0,0l0,0l0,0h0v0l0,0h0l0,0l0,0l0,0v0l0,0v0h0h0l0,0l0,0l0.2,0.2
			h0.2l0.3,0.3l0.5,0.1h0l0,0l0,0h0l0,0l0,0h0h0l0,0l0,0l0.1,0.1l0,0l0,0l0,0l0,0l0,0v0l0,0l0,0l0,0l0,0h0l0,0v0l0,0l0,0v0h0l0,0v0
			v0l0,0l0,0v0.1l0,0l0,0l0,0l0,0h0l0,0h0h0l0,0h0l0,0h0l0,0v0h0h0v0v0h0l0,0l0,0v0v0l0,0h0l0,0l0,0v0v0l0,0l0,0h0v0v0v0v0h0v0v0h0
			v0v0l0,0v0h0h0l0,0v0h0l0,0l0,0l0,0h0v0l0,0v0l0,0l0,0l0,0h0v0l0,0l0,0l0,0h0l0,0h0v0h0v0l0,0v0h0l0,0h0l0,0l0,0v0h0h0l0,0l0,0
			l0,0h0l0,0l0,0v0v0l0,0l0,0l0,0l0,0l0,0l0,0h0h0h0l0,0l0,0v0l0,0l0,0l0,0l0,0l0,0h0v0l0,0v0v0l0,0l0,0l0,0h0h0l0,0l0,0v0l0,0l0,0
			h0l0,0l0,0l0,0v0l0,0l0,0l0,0l0,0h0l0,0l0,0v0l0,0l0,0l0,0l0,0v0v0v0l0,0h0l0,0l0,0l0.1,0.1l0.1,0.2l0.5,0.9l6.5,3.2l1.7,3.4
			l-5,2.9l-0.6,0.4l0.3,0.5l-0.9,1.2l1.1,0.4l-0.1,0.2l0.6-0.1l0.1,0.6l-0.2,0l-0.3-0.3l-0.1,0.1l0.7,1.4l-0.9,0.5l-1-0.1l-1.6-1.8
			l-0.2,0.3l0.5,2.6l0.2,0.1l0.1-0.2l0.4,0.2l0.3,0.2l0,0.2l0.7,0.2l-0.2,0.3l0.3,0.3l0,0.1v0l0,0l0,0l0,0v0l0,0v0v0v0l0,0l0,0l0,0
			v0h0h0l0,0h0h0h0l0,0l0.1,0v0.2l0,0l0.2-0.1l0.1,0.2l0.5,0.2l-0.1,0.2l0.1,0.1l0.2,0l0.6,2.1l0.2-0.1l0,0.1l0.2,0l0-0.1l0.3-0.1
			l0,0.3l-0.5,0.2l0.4,0.4l-0.1,0.2l1.2,0.4l0.9,1.3l0.5-0.3l0.8,0.8l0.2-0.1v0l0,0l0,0l0,0l0,0v0h0h0h0l0,0l0,0l0,0v0v0l0,0l0,0
			l0,0l0,0l0,0v0l0,0l0,0l0,0h0l0,0v0l0,0l0,0l0.6,0.7l0,0l0,0l0,0l0,0v0l0,0v0v0l0,0v0v0v0l0,0v0v0h0v0h0h0v0v0v0v0l0,0l0,0l0,0h0
			l0,0l0,0l0,0l0,0l0,0v0v0v0l0,0l0,0v0l0,0l0,0l0,0l0,0h0v0l0,0l0,0v0v0v0h0h0v0h0l0,0l0,0h0v0h0h0h0l0,0l0,0l0,0v0h0h0l0,0l0,0
			l0,0h0h0l0,0l0,0v0l0,0l0,0l0,0h0h0l0.3,0.6l-7.6,5.4l-1.4,3.6l0,0.2l-0.7,0.1l0-0.2l-1.8-1.9l0.1-0.7l-0.9-0.4l-1.5-1l-0.6-0.2
			l-1-1.5l0.3-0.5l-0.2-0.2L58,531l-0.8-0.8l-1.1-0.5l-0.2,0.3l-0.7,0.4l-1.8,2l0.2,1.7l-1.8,3.3l-0.3-0.2l-0.6,0.3l-0.3-0.2
			l-0.2-0.3l-0.1,0.1l-0.2,0l-0.4,0l-2.2,2l-0.6,2.1l0.7,2.1l3.4,4.2l-2.8,3.3l0,1.4l-0.7,1l0,1.3l-0.3,1.6l0,0l0,0l0,0l0,0l0,0l0,0
			l0,0l-0.1,0.4l-1.1,0.7l-0.9,0.7l0.2,0l1.1,0.6l0.2,0l-0.1,0.8l-0.6,0.4l-0.6,1.1l-0.3,0l-1.2,1.1l-1-2.1l-0.2,0.3l-1,0.9
			l-0.3,0.4l-0.8-0.2l-0.7,0.1l-0.7-0.3l-0.7-0.2l-0.7,0.2l-0.5,0.5l1.5,0.7l0.8,0.2l0.2-0.2l0.4,0.2l0,0.2l0.2,0.1l0.3,0.2l0.1,0
			l0.5,0.3l0.2,0l0.4,0.2l-1.4,2.5l-0.3-0.2l-0.2-0.3l-0.2-0.1l-0.3-0.3l-0.3-0.3l-0.4-0.3l-0.8-0.6l-0.2-0.2l-0.5,0.3l-0.3-0.2
			l-0.1-0.1h0l0,0l-0.1,0l-0.1,0l-0.1-0.1l-0.2-0.1l0,0l-0.4-0.2l-0.5,0.3l-0.1,0l-0.1,0l0,0l0,0l-0.1-0.1l0,0l0,0l0,0l-0.1,0
			l-0.1-0.1l-0.1,0l0,0h0l0,0l0,0l0,0l0,0h0l0,0l0,0h0l0,0l0,0v0l0,0l0,0h0l0,0l0,0l0,0l0,0l0,0l0,0l0,0l0,0l-0.2,0.2l-1-0.3
			l0.2,3.2l-1.2,10.8l-5.5-1.3l-1.3,1.4l2,2.2l-3,1.6l1.1,3l2.9,6.9h5.6l3.2,4.5l13,11.5l1.6-1l1,1.8l2.3,2l0.9-1.5l-2.4-5.4
			l0.1-3.8l1.6-0.6l1.1,2.4l2.7,1l1.1,1.3l3.4-0.2l1.8-2.4L65,597l3.8-3.5l1.8,1.1l3-2.6l1.9,1.8l2.2-0.5l-0.2-2.9l0.1,0l0,0h0h0
			l0,0v0h0h0h0h0v0v0l0,0l0,0l0,0l0,0l0,0l0.1-0.2l0,0l0,0h0l0,0l0,0l0.1,0l0.1,0h0l0,0l0,0l0,0h0l0,0l0,0l0,0v0l0,0l0,0l0,0l0.2,0
			l0,0l0,0h0l0,0h0l0,0h0h0l0,0h0l0,0l0,0l0,0v0h0l0,0l0,0l0,0l0,0l0,0l-0.1-0.1l0,0l0,0v0l0,0l0-0.1l0,0l0,0v0l0,0l0,0l0,0v0l0,0
			l0,0l0,0l0,0l0,0v0l0-0.1l0,0l0,0l0,0l0,0l-0.1-0.2l0,0l-0.1-0.1l0-0.1l-0.1,0l-0.6-1.4l0-0.2l0.2-0.5l-0.5-0.9l0.1-0.2l0-0.1
			l0-0.1l0,0v0v0l0,0l0,0l0,0l0.1-0.1l0.1-0.3l0.1,0l0,0l0.1-0.1l0-0.1l0,0l0.1,0l0.1,0.2l0.1,0.1l0.1,0l0.1,0l0.3,0l0.1,0.1h0.1
			l0.1,0.1l0.1,0.1h0.2l0,0l0.1,0.1l0.1,0l0.1-0.1l0.2-0.2l0.2-0.3l0.2-0.3l0,0l0,0v0h0l0,0l0,0h0h0l0,0l0,0v0l0,0l0,0l0,0v0v0h0h0
			l0.5-0.4l0.5-0.4l2.2,1.3l1.7,2.7l0.6,6.5l5,10.8l2,1.4l-1.2,4.4l3.1,14.3l0,0.8l0.6,0.6l0.8,2.5l0.3,0.4v0l0,0l0,0l0,0h0l0,0l0,0
			l0,0l0,0l0,0v0l0,0h0l0,0l0,0h0h0l0,0l0,0l0,0v0h0v0l0,0v0v0l0,0l0,0l0,0v0l0,0v0l0,0l0,0l0.8,1.4l0.3-0.2l1.3,0.5l0-0.1l0.5,0.2
			l0.9,0.2l0.7,0.4l-0.1,0.2l-0.3,0.5l1.7,1.5l1.1,1.9l2.6,2.6l-1.3,2.6l-1.3,2.5l-0.1,2.8l0.9,0.7l0.1,0.6l1.9,2.5l1.9,2.3
			l-1.8,1.1l0.4,0.7l0.9,1.5l0.2,0.9l-0.1,0.9l-0.6,2.8l-0.4,1.4l-0.8,1.5l-0.8,1.4l-0.7,0.7l-1.1,0.6l-2.5,2.4l-0.7,1.7l-0.5,3.4
			l-0.1,0.6l-0.6,0.8l-2,1l8.1,18.3l0,0l0.1,0.7v0l-2.1,2.1l0,0l-0.1,0.1l0,0.1l0,0.1l-0.1,0h0l-0.2,0.1l0,0l0,0.1l0,0.1l-0.1,0.1
			l-0.1,0l0,0l-0.1,0l0,0.1l0,0.1l-0.1,0.1l0,0l-0.8,0l-1.2,0.4l-3.6,0l0.4,3.7l-3.4,4.5l-6.4,8.4l0,0.1l-0.1,0.2l-0.1,0l-0.1,0.1
			l-0.1,0.2l0,0.2l-0.1,0.1l-0.1,0.2l0,0.2l0,0.2l-0.4,0.8l-0.3,0.5l-0.2,0.4l0.6,0.8l0.3,0.6l0.2,0.4l0.1,0.2l0.2,0.2l0.4,0.2
			l0.2,0.6l0.2,0.3l0.2,0.5l0.8,1.3l0.5,1.1l0.1,0l0.1-0.1l0.1,0l0.9,0.7l1,0.9L92,725l0.1,0.1l0.1,0l0.1,0.1l0.2,0l0.1,0.1l0.1,0.2
			l0.4,0.5l0.7,0l0.6,0.1l0.4,0.1l0.4,0l1.7-0.1l0.7,0.1l0.3,0.1l0.5,0.5l0.1,0.3l0,0.4l0,0.3l0.1,0.1l0.1,0.1l0.2,0l0.4,0l0.4-0.3
			l0.2,0l0.1,0.1l0.1,0.1l0.1,0l0-0.2l0.1-0.1l0.1,0l0.1,0.1l0,0.1l0,0.3v0.3l0.8,1.1l0.1,0.2l0,0.1l-0.1,0l-0.3,0l-0.1,0.1l0,0.2
			l-0.2,0.3l-0.1,0l0,0l0,0.1l0.4,0.3l0,0.1l0,0.1v0.3l-0.1,0.1l0,0.1l0,0.1l0.2,0.4l0,0.3l0.4,0.2l0.2,0.3l-0.5,0.5l0.1,1l0.3,0.1
			l0,0.1l0.1,0l0.1,0.1l0.2,0.1l0.3,0.3l0.7-0.1l1,0l0.4,0l0-0.5l0.3,0l0.4,0l0.4,0.1l0.3,0.2l0.3,0.3l0.2,0.2l0.5-0.4l0.7,0.3
			l0.3,0.2l0.7,0l0.5-0.3l0.6,0l0.4,0.3l0.4,0.3h0.5l0.2,0l0.2,0l0,0l0.6,0.1l0.3-0.1h0h0.2l0.4,0l0.2,0.1l0.2,0.1l0.4,0l0.2-0.1
			l1,0l0.1,0.1l0.3,0.3l0.4,0.5l0.1,0.1l0.1,0.1h0l0.1,0h0.4l0.1-0.1l0.3-0.3l0.4-0.1l0.1,0l0.1,0l0.3,0.2l0.1,0l0.1-0.1l0.4-0.6
			l0.1-0.2l0.1,0l0.4,0.2l0.3,0.2l0.7,0.5l0.8,0.1l0.7,0.3l0.9,0.3l0.9,0.3l0.7,0l0.4,0.2l0.5,0.2l0.6,0.2l0.9,0.3l0.6,0.3l1.1,0.1
			l1.7,0.2l0.5,0.1l17.9,4.7l2.1,0.6l15.6,3.3l18.6,4.3l23.8,9.6L232,772l8.2,3.8l7.9,3.4l19.4,6.2l14.5,4.9l14.4,4.7l0.1-0.8
			l0.4-3.6l2.7-0.5l3.3-0.7l2.4,0.3l0.1,0l0.1,0l0.1-0.1l0.1-0.1l0-0.1l0-0.1l4.9-2.2l0-0.3l-0.2-1.5l0.1-0.7l0.5-2l0.5-1.1l0.5,0
			l0.5,0l2.5-0.6l1.3-0.3l0.2,0.1l-0.8-1l-2,0.1l-1.5-0.9l-0.3-0.9l1.2-0.5l0.2,0l0.2-0.2l0.1-0.2l0-0.3l-0.7-0.4l0.4-1.5l0.1-0.9
			l0.3,0.1l0.1,0.2l-0.1,0.3l0.5,0.8l0.2-0.1l0.1,0.1l0.1,0l0.1-0.1l0.3,0l0.1-0.2l0-0.2l0.2-0.1l0.1-0.2l-0.1-0.5l1.2-1.7l-0.5-0.7
			l2.5-1.6l0.5,0.1l1.7-1.4l1.2,0.2l0.8-0.3l1.3-1.1l2.4-0.5l1-1.2l0.3-0.1l1-0.3l0-2.9l-2.6-3.8l1.6-2.4l2.2,0l0.8,0l0.2,0.1h0.1
			l0.6-0.3l0.2-0.2l0.1,0l1.1,0.3l0,1.1l0.2,1.3l2.5,1.2l1.2,1.8l4.8,0.2l1.7,2l1.4-0.2l0.2,0.2l2.3,0.3l-0.1-1.2l1.7,0l0-1.3
			l0.1-0.4l0.3-1.2l0.6-0.8l0.4-1.5l0.1-0.2l0.8-0.5l0.2-0.5l0.4-0.5l-0.1-0.4l0.4-0.7l-0.1-0.4l0.9-3l0.4-0.7l1.1-1l0.2-0.9
			l0.7-1.2l0-1.9l-0.5-0.7l-1.4-0.2l-0.2-0.4l-0.2-0.3l-6.2-2.4l-2.2-1.2l0,0.7l-0.6-0.2l-0.2,1.6l-2.3,0l-0.1,0.2l-1.1,1.9
			l-0.2,0.1l-1.1-0.5l-0.5,0.2l-0.6-0.1l-0.3-0.2l-0.3-0.2l-0.6-0.4l0-1l0.1-1.7l0.1-0.5l-0.3-0.6L336,740l0.1-0.4l0.2-0.1l0.2-0.4
			v-0.3l0.2-0.2l0-0.3l2.1,0.3l0.8-1.8l-0.9-1l0.2-1.3l-0.3-0.6l1.6-3.5l-0.1-1.8l11.8,0l0.5,0l3.9,0h1.7l1.7,0l1.5,0h0.6l0.6,0
			l1.4,0h0.3l0.5,0l0.3,0l0.5,0l1.2,0l0.9,0l1.2,0l1.6-0.1l-0.1-1l1,0l0.5,0h0.1h1.4l0.4,0.8l0.6-0.1l0.2,0.4l1.5,0.8l1.4,0.7
			l1.7,0.3l1.3,3.1l0.9,0.1l0.4,0.8l0.3,0.6l0.1,0.3l0.1,0.3l0.9,2l0.2,0.2l0,0.5v0.1l0,0.1l0,0.1l0,0.1l0,0.1v0.2l0,0.1l0.9,0.6
			l1.1,0l0.3-1l0,0l0,0l0,0l0,0l0,0v0v0l0,0l0,0l0,0l0,0v0l0,0l0,0l0,0v0v0v0v0v0l0,0l0,0v0v0v0v0v0v0l0,0l0,0v0l0,0l0,0h0l0,0v0
			l0,0l0,0v0l0,0v0v0l0,0v0v0l0,0l0,0l0,0v0l0,0l0,0v0l0,0l0,0h0v0l0,0l0,0l0,0v0h0l0,0h0l0,0h0l0,0v0l0,0h0l0,0l0,0v0v0l0,0l0,0v0
			l0,0v0h0v0l0,0l0,0h0h0l0,0l0,0l0,0l0,0h0h0h0l0,0l0,0l0,0l0,0l0,0l0,0l0,0h0l0,0l0,0l0,0h0l0,0l0.6-0.3l0.2-2.8l1.1-1.8l-0.5-1
			l-1.1-0.1l0.3-0.7l0.5-0.6l-0.2-0.5l0,0h0v0l0,0h0v0v0l0,0l0,0h0v0l0,0l0,0l0,0h0l0,0l0,0l0,0l0,0h0l0,0l0,0v0h0v0l0,0v0l0,0l0,0
			v0l0,0l0,0l0,0l0,0v0v0h0v0l0,0v0l0,0v0h0l0,0h0l0,0v0l0,0l0,0h0l0,0v0l0,0h0v0v0h0v0l0,0v0v0l0,0v0v0h0l0,0v0l0,0h0v0v0l0,0l0,0
			l0,0l0,0v0v0l0,0v0v0l0,0v0v0l0-0.7h0l0,0l0,0v0l0,0l0,0v0h0v0l0,0v0l0,0l0,0h0l0,0h0l0,0v0l0,0v0h0l0,0h0h0l0,0l0,0l0,0l0,0v0
			l0,0v0l0,0l0,0l0,0v0l0,0l0,0l0,0l0,0l0,0l0,0l0,0l0,0l0,0l0,0l0,0l0,0l0,0l0,0l0,0v0h0l0,0l0,0h0l0,0l0,0h0l0,0h0l0,0l0,0v0v0v0
			l0,0l0,0l0,0l0,0h0v0l0,0v0l0,0l0,0v0h0h0l0,0l0,0h0h0v0h0h0l0,0l0,0l0.1,0l0,0l0,0v0l0,0h0l0,0h0v0h0h0v0l0,0h0h0l0,0l0,0h0l0,0
			l0,0h0h0v0h0l0,0h0l0,0v0l0,0l0,0l0,0v0l0,0l0,0l0,0h0l0,0l0,0v0l0,0l0,0l0,0h0h0l0,0l0,0h0l0,0l0,0l0,0l0,0l0,0l0,0l0,0l0,0l0,0
			l0,0l0,0l0,0l0,0l0,0v0h0h0l0,0h0l0,0v0l0,0l0,0v0l0,0v0l0.1,0h0l0,0h0l0,0l0,0v0l0,0h0.2l0.4-0.2l1.1-1.9l0.5-0.1l0.3-1.7l2.2,0
			l4.2,0.1l4.2-2.6l1.2-0.2l-0.2-0.6l-0.5-0.4l0-0.9l1.9,0l0,0.4l0.6,1.2l0.1,0l0,0.2l0,0l0,0l0.1,0l0.1,0l0,0l0,0l0,0l0,0l0,0.2
			l0,0.2l0,0.1l0.1,0.2l0.1,0.2l0,0l4.7,0.3l0-0.1l1.8,0.7l2.2,1.9l0.6,0l1.3,0.1l3.3,0.2l1.1,0l1.1,0.1l0.4,0l0,0.1l0,0v0l0,0l0,0
			l0,0h0l0,0l0,0h0h0h0l0,0l0,0l0,0l0,0l0,0l0,0l0,0l0,0l0,0v0l0,0l0,0h0v0l0,0l0,0l0,0l0,0l0,0l0,0h0l0,0v0h0l0,0v0l0,0.1v0v0l0,0
			l0,0l0,0l0,0l0,0l0,0l0,0l0,0l0,0l0,0l0,0l0,0l0,0l0,0l0,0l0,0l0,0l0,0l0,0h0l0,0l0,0l0,0l0,0h0l0,0h0v0l0,0l0,0l0,0l0,0l0,0l0,0
			l0,0v0l0,0l0,0l0,0l0,0l0,0h0l0,0h0h0l0,0l0,0l0,0h0l0,0h0l0,0v0l0,0l0,0l0,0l0,0l0,0l0,0v0l0,0v0v0l0,0v0v0l0,0h0l0,0l0,0h0h0
			l0,0l0,0l0,0l0,0l0,0l0,0l0,0l0,0l0,0l0,0l0,0v0l0,0l0,0l0,0v0v0l0,0v0l0,0l0.1,0h0l0,0l0,0l0,0l0,0h0l0,0h0l0,0l0,0l0,0l0,0l0,0
			l0,0l0,0l0,0l0,0l0,0h0l0,0l0,0l0,0l0,0h0l0,0l0,0l0,0l0,0l0,0l0,0l0,0l0,0v0l0,0l0,0l0,0v0h0l0,0l0,0v0v0h0h0h0l0,0l0,0h0l0,0
			l0,0h0l0,0l0,0l0,0l0,0l0,0l0,0l0,0l0,0h0l0,0l0,0l0,0h0l0,0l0-0.1l0,0l0,0l0,0l0,0l0,0l0,0h0l0,0l0,0v0v0l0,0l0,0l0-0.1l0,0l0,0
			l0,0l0,0l0,0l0,0l0,0l0,0l0,0v0l0,0v0l0,0v0l0,0h0l0,0l0,0l0,0l0,0h0l0,0l0,0v0l0,0l0,0h0l0.1,0l0.1-0.2l0,0l0-0.1v0l0,0h0l0,0
			l0,0l0,0.1l0.1,0.1l0.1,0h0l0.1,0l0,0l0,0h0h0h0h0l0,0l0,0v0l0,0l0,0h0l0,0l0,0h0h0v0l0,0l0,0h0.1l0,0l0,0l0,0h0l0,0l0,0h0l0,0
			l0,0l0,0l0,0h0l0,0l0,0l0,0h0l0,0l0,0h0l0,0l0,0v0l0,0v0l0,0l0,0h0l0,0l0,0l0,0v0l0,0l0,0l0,0h0l0,0l0,0l0,0l0,0l0,0v0v0l0,0l0,0
			h0l0,0l0,0l0,0h0l0,0h0l0,0h0l0.1,0l0,0l0,0l0,0l0,0l0,0l0,0l0,0l0,0h0l0,0l0,0v0l0,0h0h0l0,0l0,0h0l0,0l0,0h0l0,0l0,0l0,0.1v0
			l0,0l-0.1,0.1l0,0l0,0l0,0l0,0l0,0l0,0l0,0l0.1,0.1l0.1,0l0.1,0l0.1,0l0,0l0,0l0,0l0,0l0.1,0l0,0l0,0l0.1,0l0,0l0,0l0,0l0.1,0
			l0.1,0l0,0.1l0,0l0.1,0l0,0l0,0l0,0l0,0l0,0l0.1,0l0,0l0.2,0l0.1-0.1l0.1-0.1l0.1-0.2l0.1-0.2l0.1-0.2l0.1-0.1l0,0l0,0l0-0.1l0,0
			l0-0.1l0-0.1l0,0l0,0l0,0l0,0v0l0-0.1l0,0l0,0l0,0l0,0l0,0l0,0l0,0l0-0.1l0-0.2l0-0.1l0.1-0.1l0.1,0l0,0l0-0.1l0,0l0,0l0,0v-0.1
			l0-0.1l0.2-0.1l0.5,0.2l0.4,0.3l0.1,0l0.6,1l2.6-0.3l1.6-0.2l2.1-2.2l-0.2-0.9l1.3-1l0.3,0.4l0.2,0.3l0.2,0.2l0.2,0.1l0.2,0
			l0.2-0.1l0.4-0.2l0.6-0.3l0.1,0.6l-0.8,1l-0.3,1v0.3l0.1,0.6l-0.7,1.5l0.2,1.1l-0.6,0.8l-0.5,6l3,0.1l0.1,0.5l-0.1,0.2l0,0.1
			l-0.2,0.2l-0.1,0l0,0l0,0l0,0l0,0l0,0l0,0l0,0h0h0l0,0l-0.1,0l0,0v0v0l0,0l0.5-0.1l-0.1,3.1l0.3,0.2l1.1-0.5l0.2-0.4l0.4-0.2
			l1.3-1.6l0.7,0.4l2.1-1.2l0-0.3l0.7-0.5l0.8-0.9l1,0.2l0.4,0l0,0.1l0,0.1l0,0l0,0l0,0l0,0l0,0l0,0l0,0v0h0l0,0l0,0l0,0l0,0l0,0h0
			v0l0,0v0l0,0l0,0l0,0l0,0l0,0l0,0h0l0.1,0l0,0l0,0l0,0l0,0l0,0l0,0l0,0l0,0l0,0h0v0v0l0,0l0,0l0,0h0h0l0,0l0,0l0,0l0,0v0h0h0h0v0
			h0l0,0l0,0v0l0,0h0l0,0l0,0v0l0,0l0,0l0,0h0l0,0l0,0l0,0l0,0l0,0l0,0l0.1,0v0l0,0l0,0l0,0v0l0,0l0,0l0,0l0,0v0l0-0.1h0l0.1,0l0,0
			l0,0v0h0l0,0v0l0,0l0.1,0l0,0l0-0.1l0,0l0,0l0,0l0,0h0h0l0,0h0l0,0h0h0l0,0h0.1l0,0l0,0l0,0l0,0l0,0h0l0,0l0,0l0,0l0,0h0l0,0h0v0
			l0,0v0l0,0h0v0v0l0,0v0l0,0h0l0,0h0l0,0v0l0,0v0l0,0h0l0,0l0,0v0v0l0,0l0,0h0l0,0v0v0l0,0l0,0h0h0l0,0h0v0v0h0h0l0,0l0,0l0,0h0
			l0,0v0h0l0,0v0l0,0h0l0,0v0l0,0l0,0l0,0.1l0,0l0,0l0,0h0v0h0v0h0v0l0,0l0,0l0,0l0,0l0,0h0l0,0h0l0,0l0,0l0,0h0l0,0l0,0l0,0v0l0,0
			v0l0,0l0,0l0,0v0h0l0,0h0l0,0l0,0v0v0h0l0,0l0,0h0l0,0v0l0,0l0,0h0l0,0l0,0l0,0v0l0,0l0,0h0h0l0,0h0l0,0h0l0,0h0h0l0,0h0l0,0v0v0
			l0,0v0l0,0l0.1,0l0,0v0v0.1v0l0,0h0l0,0l0.1,0.1l0,0l0,0h0l0.1-0.1l5.8-4.1l7.4-3.9l29.2-15.6l7.5-4l2.3-1.1l1-1.3l-1.2-1.7
			l4.7-9.1l0.5-2.9l6.5-2.5l1.5,1.2l8.9,1.4l0.6-2.8l8.5-6.3l0.1,1.8l1.5,0l6.6,5.2l4.3,0.4l2.8,0.4l-0.1,2.7l0.8,2.2l1.6,0.1
			l0.9-0.3l7,0.1l3.2-2.3l2.7,0.7l6.5-1.5l1.5-0.3l3.1,1l3.4,0.2l-1.8-0.9l-0.8-1.3l0.2-0.7l-0.7-1.3l0.7-1.2l-0.9-5.1l1.5-1.9
			l-0.5-1.5l0.6-1.5l-0.3-0.4l1.2-2.7l0.4-0.2l1.2,0.3l0.8-0.5l0.3-1.1l0.7-0.9l0.7-0.2l0.6-1.3l-0.1-0.8l0.4-0.3l-0.1-1.2l-0.4-1.6
			l-0.3,0l-0.7-0.7l0-0.6l0.7-1.7l0.3-0.3l-0.5-1.2l0.3-0.3l0.2-1.5l1-1l0.3-1.3l0-2l0.1-0.2l-0.5-1l0.5-1l-0.1-0.4l0.4-0.8l0.3-0.2
			l0.1-1.7l0.9-1.6l-0.4-0.6l0.8-2.3l-0.6-2l0.4-1.7l0.3-0.8l-0.1-0.9l0.7-0.5l-0.1-0.2l-0.2-0.2l0.2-1.3l-3.2-1.2l-1.8,0.2
			l-1.2-0.2l-1.5-3.1l0.5-1l-0.4-0.8l0.5-1.9l-1.3,0.2l-0.6-2l0.3-0.8l-1.2-2.8l0.4-1.5l-0.7-3.2l0-0.1l-0.1,0h-0.1l-0.2,0.2
			l-0.2,0.2l-0.1,0l-0.1,0l0,0l0-0.1l-0.1-0.1l-0.1-0.1l0.4-1.1l0.7-0.5l0-0.6l-2.1-3.5l1.2-0.9l-2.5-2l0.2-1.1l-1-1.7l-1.7,0.3
			l-2.1,0.1l-2.8-1.2l-2,0.8l-0.1-0.1l0,0l0,0l0,0l0,0l0,0l0,0l0,0l0,0v0l0,0v0h0l0-0.1l-0.1-0.1l-0.1,0l0,0l0,0.1h0l0,0l0,0h0l0,0
			l0,0v0h0l0,0l0,0l0,0l0,0v-0.1l0,0l0,0h0l0,0.1l0,0l0,0l0,0l0,0l0,0l0,0l-0.1,0v0l0,0l0-0.1l0,0l0,0l0,0l0,0l0,0l0,0l0,0l0,0v0
			l0,0l0,0l0,0l0,0l0,0l-0.1,0l-0.1,0l0,0l0,0l0,0l0,0l0,0l0,0l0,0l0,0l0,0l0,0l0,0l-0.1,0l0,0l0,0l0,0l0,0l-0.1,0l0,0l0,0l0,0l0,0
			l0,0l-0.1,0.1l0,0l0,0v0l0,0l-0.1,0l0,0.1l-0.1,0h-0.1l0,0l0,0.1l0,0l0,0l-0.1,0.1l0,0v0h0l0,0l0,0l0,0l0,0l0,0h0l-0.1,0l-0.1,0.1
			l-0.1,0.1l-0.1,0h-0.1l-0.1,0l-0.2,0l0,0l-0.1,0h-0.1h-0.1l-0.1,0.1l-0.1,0l-0.2,0.1l0,0.1l-0.1,0.1l-0.1,0.1l-0.1,0.1l-0.1,0.2
			l-0.1,0.1l-0.1,0.2l-0.1,0.1l-0.1,0.2l0,0.1l-0.1,0l-0.1,0l-0.1,0l-0.3-0.1l-0.1,0l-0.1,0.1l-0.2,0.2l-0.1,0l-0.2-0.1l-0.1-0.1
			l0-0.2l-0.1-0.2l-0.1-0.3l0-0.1l0-0.1l0-0.1V609l0-0.1l0-0.1l0,0l0.1-0.1l0.1-0.1l0-0.1l0,0l0-0.1l0,0l0-0.1l0-0.2l0,0l0.1-0.1
			l0.2-0.2l0.1-0.2l0-0.3l0.1,0l0.1-0.1l0.1-0.1l0-0.1l0.1-0.1l0.2-0.1l0.1-0.1l0.1-0.1l0-0.1v-0.1l-0.1-0.2l0-0.1v-0.1l0-0.1
			l0.1-0.2l0.1,0l0.1,0l0.1,0l0.1,0l0-0.1l0-0.1l0-0.1l-0.1-0.1l-0.1-0.1l-0.1-0.1l-0.2-0.1l-0.1,0l-0.2,0h-0.1l-0.2-0.1l-0.2-0.1h0
			l-0.1,0.1h-0.1l0,0l0,0v-0.1l0.1-0.1l0.1-0.2l0-0.1l0-0.1l0-0.1l0.1-0.1l0.1-0.1l0.1-0.1l0-0.1l0-0.1l0-0.1l0,0l0.1,0l0.1,0l0-0.1
			l0-0.2l0-0.1l-0.1-0.1l-0.1-0.1h-0.1l-0.1,0l0,0l0,0l0-0.1l0-0.1l0.1-0.1l0.1-0.1l0,0l0.1,0l0,0l0,0l0-0.1l0-0.1l0-0.1l0.1-0.1
			l0.1-0.1l0.1-0.1l0.1-0.1l0-0.1l0-0.1l0,0l0,0l0,0h0l0,0l0,0.1l0,0l0,0v-0.1l0-0.1l0.1-0.1l0.1-0.1l0.2-0.1l0.2,0l0.1-0.1l0.1-0.2
			l0.1-0.2l0-0.1l0.1,0l0,0l0-0.1l0.1-0.2l0.1,0l0.1,0l0.2,0l0.1,0l0.1,0.1h0l0,0l0-0.1l0-0.1l0-0.1l0.1,0l0.3-0.1l0.2-0.1l0.1-0.1
			l0.1-0.1l0-0.1l0-0.1l0.1,0l0-0.1l0-0.1l0-0.1l0-0.1l0.1-0.1l0.1-0.1l0-0.1l0.1-0.1l0-0.1l0-0.1l0.1-0.1l0-0.1l0-0.1l0,0l0.1-0.1
			l0.1-0.2l0,0l0-0.1l0-0.1l0-0.1v-0.1l0,0l0-0.1l0-0.1l0-0.1l0.1-0.1l0-0.1l0,0l0-0.1v-0.1l0,0l0,0h0.1l0,0l0,0l0-0.1l0-0.1l0-0.1
			l0-0.1l0-0.1l0-0.2l0-0.1l0.1-0.1l0.2-0.3l0-0.1l0-0.1v-0.1l0-0.1l0,0l-0.1-0.1l-0.1,0l0,0l0-0.1l0-0.1l0,0l0,0h0l0.1,0l0.1,0.1
			l0,0l0,0l0,0v-0.1l0,0l-0.1,0l-0.1-0.1l0-0.1l0-0.1l0.1,0h0l0,0l0,0v0l0,0l0,0h0l0.1,0l0.2-0.1l0,0l0-0.1l0,0h0l0.1,0l0,0l0,0l0,0
			l0-0.1l0-0.1l0-0.1l0.2-0.3l0-0.1l0.1-0.1l0,0l0-0.1l0-0.1l0-0.1l0-0.1l0-0.1v0l0,0l0.1-0.1l0.1-0.1l0-0.1l0-0.1l0.1,0l0.1,0v0
			l0,0l0,0l-0.1,0l-0.1,0l-0.1,0l0,0l0-0.1l0,0l0,0l0-0.1l0,0l0,0l0-0.1l0-0.1l0,0l0.1,0l0.1,0l0.1-0.1l0,0l0.1,0l0,0l0,0.1h0.1l0,0
			l0-0.1v0l0,0l0,0l0,0l0.1-0.1l0.1-0.1l0.1-0.1l0,0l0,0l0.1,0l0.2,0l0,0l0-0.2l0,0l0,0l0-0.1l0-0.1v-0.1l0-0.1l0-0.1l0.1-0.1l0.1,0
			l0,0l0.1,0h0.2l0.1,0l0.1-0.1v-0.1l0-0.1l-0.1-0.1l-0.1,0l-0.1-0.1l-0.2-0.3l0-0.1l0-0.2l-0.1-0.2l0-0.1l-0.1-0.1l0-0.1v-0.1
			l0-0.1l0.1,0l0.1-0.1l0-0.1l0-0.1l0-0.1l0.1-0.1l0-0.1l0,0l0,0l0,0l0.1-0.1l0.1-0.1l0-0.1l0,0l0.1-0.1l0,0l0-0.1l0-0.2l0-0.1
			l0-0.1l0-0.1l0-0.1l0-0.1l0-0.1l0-0.1l-0.1-0.1l0-0.1l0-0.1l0,0l0-0.2l0-0.1l0-0.1l-0.1-0.3l-0.1-0.3l0-0.1l0-0.2l0-0.2l0-0.2
			l0.1-0.3l0-0.1l0-0.1l0-0.1l0-0.1l0-0.1l0-0.1l0,0l0,0l0-0.1l0.1-0.1l0.2-0.2l0.1-0.1l0.1-0.1l0.2-0.2l0.1-0.1l0,0l0-0.1l0,0l0,0
			l-0.1,0h0l0-0.1l0,0l0,0l0,0h0.1l0,0l0-0.1l0-0.2l0-0.1l0,0l0-0.1l0-0.1l0-0.1l0.1-0.1l0-0.1l0,0l0,0l0,0v0l0-0.1l0,0l0-0.1l0,0
			l0.1,0l0,0l0-0.1l0-0.1l-0.1-0.2l-0.1-0.1l-0.1-0.1l0-0.1l-0.1-0.2l-0.1,0l0-0.1v-0.1l0-0.1l0-0.1l0,0l0,0l0,0l0,0l0,0l0-0.1
			l0.1-0.1l0.1,0l0,0l0-0.1l0,0l0-0.1v-0.1l0-0.1l0-0.1v0l0,0l0,0l0,0l0,0l0,0l0-0.1l0,0l-0.1-0.1l0,0l0,0l0.1,0l0.1-0.1l0,0l0.1,0
			l0.1-0.1l0-0.1l-0.1-0.1l0,0l0,0l0,0l0,0v0l0,0l0.1-0.1l0.1-0.1l0-0.1l0-0.1l0-0.1l0-0.1v-0.1l0.1-0.2l0-0.1l0-0.1l0-0.1l0,0
			l0-0.1l0-0.1l0-0.1l0,0l0.1,0l0.1,0h0l0,0l0-0.1l0-0.1l0-0.1l0-0.1l0.1-0.1l0-0.1l0.1-0.1l0.2-0.1l0.1,0l0.1-0.1l0,0l0-0.1l0-0.1
			l0-0.1l0-0.1l0-0.1l0,0v0l0-0.1l0-0.1l0.1-0.2h0.1l0,0h0l0,0l0-0.1l0-0.1l0-0.1v-0.1l0-0.1l0,0l-0.1-0.1l-0.1-0.2l0-0.1l0-0.1
			L571,574l-0.1,0l0,0h0l-0.1,0.1h0l0,0l0,0l0-0.1l0,0l0,0l-0.1,0h-0.1l0,0l0,0l-0.1-0.2l0-0.1l-0.1-0.1l-0.1-0.1l0-0.1l0-0.1l0,0
			l-0.2-0.1l0,0l-0.1,0l-0.1,0l0,0l0,0l-0.1-0.1l0-0.1l-0.1,0l0,0l-0.1,0.1l-0.1,0l-0.1,0l0,0l0,0l0,0l-0.1,0l0,0l0-0.1l-0.1-0.1h0
			l0,0l-0.1,0h-0.1l0-0.1l-0.1,0l-0.1-0.1l-0.1-0.1l-0.1-0.1l0,0l0-0.1l0-0.1l0,0l0,0l0,0l0.1-0.1v0l0,0l0-0.1l0-0.1l0-0.1l0-0.1
			l0.1,0l0,0l0,0l0-0.1v-0.1v0h-0.1l0,0l0,0l0,0l0-0.1l0-0.2l0-0.1l0,0l0,0v0l0,0l-0.1-0.1l-0.1,0l-0.1-0.1l0-0.1l0-0.1l0,0l0-0.1
			l0-0.1l0-0.1l0,0v0l0-0.1l0-0.1l0-0.1l0,0l0,0l0.1,0l0,0l0-0.1l0-0.1l0-0.1l0-0.1l0-0.1V569l0-0.1l0-0.1l0-0.1v-0.1l0-0.1v-0.1
			v-0.1l0-0.1l0.1-0.1l0-0.1l0-0.1V568l0-0.1l0-0.1l-0.1-0.1l0-0.1l0-0.1l0-0.1l0,0h0l0,0l0,0l0,0l0,0l0,0l0,0l0,0l0-0.1l0.1,0l0,0
			l0.1,0l0,0l0,0l0,0l0,0l0,0l0,0h0l0-0.1l0.1,0l0-0.1l0-0.1l0,0l0,0v0.1l0,0l-0.1,0l0,0l0-0.1l-0.1,0l0,0h0l0,0l0-0.1l0,0l0-0.1
			l0.1,0h0l0,0l0,0v-0.1l0,0l0-0.1l0-0.1l0,0l0.1,0h0l0,0l0,0v-0.1l0-0.1l0-0.1l0-0.1l0-0.2l0-0.1l0-0.1l-0.1,0l0,0l0-0.1l0-0.1h0
			l0,0l0,0.1v0.1l0,0.1l0,0l0,0l0,0l0,0l-0.1-0.2l0-0.1l0-0.1l0,0v-0.1l0-0.1l0,0l0.1-0.2l0,0l0,0v0l0-0.1l-0.1,0h0l0,0l0,0l0,0l0,0
			l0,0l0,0l-0.1-0.1l-0.1-0.1l0-0.1l0-0.1l0,0l0.1-0.1l0,0l0,0l0,0l0,0l0,0v0l0-0.1l0,0l-0.1-0.2l0-0.1v0l0,0l0-0.1l0,0l-0.1,0l0,0
			l0-0.1l-0.1-0.1l0-0.1l0-0.1l0-0.1l0,0l0,0l-0.1,0l0,0l0,0l-0.1,0l0-0.1l0-0.1l-0.1-0.1l-0.1,0l0,0l0-0.1l0,0l0,0l0-0.1v-0.1v-0.2
			l0,0l0.1,0l0,0l0-0.1l0-0.1l0,0l0,0l0,0l0,0l0-0.1l0-0.1l0,0l0,0l0,0l0,0l-0.1,0l0,0l-0.1,0l0,0v-0.1l0,0l0,0l-0.1,0l-0.1,0l0,0
			l0,0l0.1-0.1l0,0l0-0.1l-0.1-0.1l0-0.1l0-0.1l0,0l0,0l0.1-0.1l0.1-0.1l0,0l0-0.1l0-0.1h0l0,0l0,0.1l0,0.1l0,0l0.1,0l0.1,0l0-0.1
			l0-0.1l0,0l-0.1,0v0l0,0l0.1,0l0,0l0-0.1l0,0l0-0.1l0-0.1l0-0.2l0-0.1l0-0.1l-0.1,0l0-0.1l-0.1-0.1l-0.1-0.1l-0.1-0.1l0-0.1l0-0.1
			l0,0l0,0l0,0l0.1,0l0,0l0,0v-0.1l0-0.1l0-0.1v-0.1l0,0l0-0.1l0-0.1l0-0.1l0,0l0-0.1l0-0.1l0,0h0l0-0.1l0-0.1l0-0.1l0,0l0,0h0v-0.1
			l0,0l0,0l0,0h0l0,0l0-0.1l0,0l0,0l0,0l0,0l0-0.1l0,0l0,0l0-0.1l0-0.1l0,0l0,0l0,0v0l0,0h0.1l0,0v-0.2l-0.1-0.1l0,0l0,0l0-0.1
			l0-0.1l0-0.1l0,0l0,0l0,0h-0.1l0,0l0-0.1h-0.1l-0.1-0.1l0,0l0,0l0.1,0l0,0h-0.1v0h0l0,0l-0.1,0l0,0l0,0l0,0l0,0h-0.1v0l0,0l-0.1,0
			h-0.1l-0.1-0.1l0-0.1l0-0.1l0,0l0.1-0.1l0.1-0.1l0,0l0,0l-0.1,0l0-0.1l0,0l0-0.1l0-0.1l0,0l0,0l0,0l-0.1,0l0-0.1V555l0,0h0l-0.1,0
			l-0.1,0v0l0.1,0l0,0l0-0.1l-0.1,0l-0.1,0l-0.2,0l-0.1,0l0-0.1v0l0,0l0,0l0,0l0-0.1l0,0v-0.2l0,0l-0.1,0l0,0l0,0l0,0h0l-0.1,0
			l0-0.1l0-0.3v-0.2l0,0v-0.1l0-0.1l0-0.1l-0.3-0.2l0-0.2l-2.1-0.1l-6.3-3.2l-2.6,0l-2.8,0.7l-1.4-0.7l-4.1,3.1l-6.4,0.5l-1.7-1.3
			l-0.4-0.2l-0.5-0.5l-0.4-0.2l-1.7-1.4l-9.8-2.4L508.2,536l-1.3-1l-2.4-5.8L491.2,507l-0.7-5.1l1.6-3.3l0.1-0.6l2.2-4l-0.4-4.9
			l1-1.4l1.8-0.1l2.9-4.2l-0.8-4l-0.5,0.4l-3.6-0.1l-1.4,0.7l-2.9,0.9l0.9-8.9l-1.6-7l-2.5-11.9l-1.7-1.4l-0.9-0.5l-1.1-1.1
			l-2.5-0.6l-1.2-0.6l-1.4-0.7l-0.7-0.3l-8-14.5l2.5-3.8l20.7-2.1l0.4,0.4l9.2-1.1l2.2-5.6l1.3-1.9l4.4-8.5l-0.5-5.6l-1.4-0.5
			l-0.6-6l0.8-3.4l0-0.1l-0.5-5.2l0-0.9l-0.3-2.1l0.2-0.4l0-2.4l-0.1-0.4l9-14.5l2.4-9.4l2.6-4.9l0.3-5.3l-2.6-5.3l-5.9-4.5
			l-3.5-6.1l-4.6-6.1l-4.5-3.5l-16.3-13.9l-7.5-7.7l-10.4-6.1l-4.9-15.5l9.6-28.7l1.4-1.8l1-2.1l6.2-1.9l1.1-2.9l1.2-1.5l1.6-1.4
			l-3.4-4.2l-0.3-1.2l-3.7-2.3l-7.8-10.2l-0.5-3.1l-2-4h-1.8l-1.1-1.1h-17.2L433.6,196l3.4-91.4L408.7,80l-12.8-9.8l-10.6-7.8
			l-25.6-19.6l-23.3-12.3l-0.2-0.1l-3.6-1.6l-1.7-0.8l-6.4-2.5l-9.6-3l-6.1-1l-4.3-0.8l-3.2-1.7l-5-0.7l-2.9-0.8h-3.3l-9,0.1l-4,0.1
			l-0.3,0.4l-1.5,0.5l-0.4,8.8l0,4.2l-0.1,1.2l-0.1,0.2l-0.3,0l-0.2,0l-0.3-0.1l-0.2,0l-0.2,0l-0.4,0.1l-0.3-0.1l-0.2-0.1l-0.2,0
			l-0.3,0.1l-0.2,0l-0.2-0.1l-0.4,0l-0.3,0l-0.1,0.1l-7.1,0.5l-0.4,1.2l-0.4,13.8l-0.2,3.9l-5.7-0.2l-6.3-0.1l-11.6-0.5l-0.5-0.1
			l-4.3-1.7l-1.4-1.1l-0.8-7.1l-0.7-4.6l-0.7-6.3l-10-1l-0.9-8.8l-1.7-13.4l-0.1-0.1l-0.2-0.1l-3.9-0.5L214,6.5l-23.6-0.1L189.8,5
			l-3.5,0.1L186,5.3l0,0.1L87.1,5.9l1.6,2.8L89,9L89,9l0.1,0.1l0,0.2l0,0.2L89,9.5l0.3,1.3l0,0.6l0.4,0.6l1.2,2.1l-0.1,0.3l-0.4,0.3
			l0.4,0.8l0.8,0.2l0.3-0.1l0.3,0.1l0.1,0.4l0.1,0h0l0,0l0,0.1l0,0l0.1,0h0.1l0.1,0l0.1,0l0,0.4l-0.1,0.3l-0.2,0.3l0,0.2l0,0.1
			l0.1,0.1l0.1,0l0,0.2V18l0.1,0.1l0.2,0l0.1,0.2l2.9,5.1l0.4,1.1l2.3,5.9l0.4,1l2.7,8.1l3.4,9.8l0.6,2.1l1.2,4.7l1.7,5.3l0.1,0.5
			l0.2,0.3l0,0l0,0l0,0v0l0,0h0l0,0l0,0l0,0h0h0h0h0l0,0l0,0l0,0l0,0l0,0l0,0v0l0,0h0l0,0l0,0.1l0.1,0l0.1,0.1l0,0.1l0,0.1l0,0.1
			l0,0l0,0.1l-0.1,0.1l-0.1,0l-0.1,0l-0.1,0h-0.1l-0.2,0l0,0l0,0l0,0l0,0v0l0.1,0.1l0.1,0.2l0,0l0,0l0.1,0.1l0.1,0.1l0.1,0l0.1,0
			l0.1,0l0.1,0l0,0l0.1-0.1l0,0l0,0.1l3.4,5.6l2.3,3.7l0.6,0.9l0.3,0.5l1,1.6l1.2,1.9l1.9,3.2l0.9,1.4l0.9,1.5l2.5,10.2l0.3,1.5
			l0,0.1l0.5,0.2l-0.2,0.3l-0.2,0.2l0.2,0.8l0.2,0.7l0.2,0.9l0.5,0.3l0,0.3l-0.2,0.1l0.1,0.8l0.4,5.1l1.6,1.7l0,0.8v0.4l0.4,1.2
			l1,3.3l0.7,2.5l0.3,1.3l0.2,0.8l0.4,2.3l0.5,3.1l0,0.3l0.1,0.7l0,0.3l0.4,3.3l0.2,1.4l0.2,1.4l0.1,0.9l0.1,0.6l0.2,0.8l0,0.5
			l0.1,0.9l0.1,0.9l0.1,0.6l0.1,0.9l0.2,1.4l0,0.4l0.1,1.1l0.3,2.6l0.3,2.8l0,0.4l0.2,4.4l-5.7-2.6l-1.3-1.3l-2.4,1.3l-2.1,0.9
			l-0.6,0.3l-1.7,0.8l-2.9,1.4l-3.6,1.8l-2.9,1.4l-1,0.5l1.9,3.9l3.6,3.6l1.3,1.5l1.5,1.8l-3,3.7l-0.7,0.9l-0.1,0.1l-0.4,0.6
			l-0.1,0.2l-0.5,0.8l-1,1.7l-0.2,0.4l-0.3,0.5l-0.1,0.6l-0.1,0.7l-0.1,0.8l-0.5,0.7l-0.5,0.7v0.4l-0.1,3.1l-0.1,2l-0.1,2.2l0,1.4
			l0,1l0.1,1l0.1,2l0,0.7l0.2,0.9l0.5,1.9l0.2,0.9l-1.3,1.8l-0.8,1.1l-3.8,5.3l-2.1,1.9l-0.4,2.2l1.1,2.2l0.2,0.4l0.6,1.4l2,0
			l1.9,0.1l2.5,0.7l1.1-0.4l3.1,0.8l2.5,1.1l1.5,1.2l0.5,1.9l-4.3,6.8l1.8,2.2l0,0l0-0.1l0.1-0.1l0.1,0l0.1,0l0.1-0.2l0.1,0l0.1,0
			h0.1l0,0.1l0,0.1l-0.1,0.1l0,0l0,0l0,0.1l0,0.1l0,0l-0.1,0.1L118,225l0.9,1.1l1.7,2l-1.5,0.2l-2.4,1.6L111,230l-1.2,1l-1.6,1
			l-1.6,1l-0.1,0.1l-1.6,1.1l-0.2,1.8l-0.1,1.4l-0.1,1.2l-0.1,1.2l-0.1,1l-0.6,1.6l-0.3,0.8l0.7,3l0.3,1.2l0.2,0.7l-0.1,1l-0.1,1.2
			l-0.2,1.3l-0.1,1l0.2,1.4l1.7,7l2.1,2.4l1.1,1.6l-0.7,2.5l1,1.3l0.2,0.2l1.9,2.4h7.5l0.6-0.3l1.1-0.2l5.7-0.2l0.7,0.5l2.1-0.2
			l2.5,2.6l0.3,1.2l-0.3,0.1l-2.6,3.2l0.7,3.8l3,5.4l1.2,2.3l0.6,1.1l-0.3,1.9l-0.6,1.2l-3.8,1.4L126,299l0,0.1l0.5,1.3l-0.3,2.5
			l-0.3,3.4l0.4,1l1.2,3l0.9,0.5l-0.3,2.4l1.2,1.5l0.7,2.9l-0.5,1.2l0.4,1l-0.7,4.4l3.8,5l1.6,1l4.2,1l3.1,1.9l1.3,0.8l1,1.3
			l3.8,2.7l-0.4,2.5l1.6,1.6l5.5,0.9l1.6,5.5l-2.5,2.3l2.9,6.6l2.2,3l0,4.1l-1.5,7l-2.1,4.2l0,0.1l-2.6,4.5l-5.5,6.7l-1.9,3v0l0,0.1
			l-3.5,11.4l-6.4,2.8l-1,0.5l-2,1.1l-6.2,3.5l-0.5,0.3l-0.1,0l0,0l0,0l0,0l0,0h0l0,0h0l0,0l0,0l0,0l0,0v0h0l0,0l0,0l0,0l0,0h0l0,0
			l0,0l0,0l0,0l0,0l0,0l0,0h0l0,0l0,0l0,0v0l0,0l0,0.1l0,0v0l0,0l0,0l-0.1,0l-0.1,0.1l-5.6,0.9l-3.7,3.9l-2,2.1l-3.1-5.9l-2.3-17.5
			l-8.6,1.1l-7.2,1.4l-3,0.6l-4.4,0.9l-3.3,0.2l-11,0.6l-6.6,0.6l-2.5,0.6l-8.9-2.6L41,394.2l-1.7-0.7L39,394l-2.1,1l-0.1,0.2
			l0.9,1.5L31,410.3L31,410.3z"/>
	</g>
</g>
</svg>
